<svg width="101" height="101" viewBox="0 0 101 101" fill="none" xmlns="http://www.w3.org/2000/svg">
<rect width="101" height="101" rx="50.5" fill="#FFE5E5"/>
<path d="M69.0835 31.8354C90.9785 9.94035 6.52814 9.94035 28.4213 31.8354C6.52624 9.94035 6.52624 94.3907 28.4213 72.4976C6.52624 94.3926 90.9766 94.3926 69.0835 72.4976C90.9785 94.3926 90.9785 9.94224 69.0835 31.8354Z" fill="#FF4800"/>
<path d="M53.1925 45.6486C52.9768 45.6486 52.7611 45.571 52.5889 45.414C52.2218 45.081 52.1953 44.5114 52.5283 44.1443C53.7488 42.8008 55.1245 42.112 56.6137 42.0969C56.6307 42.0969 56.6477 42.0969 56.6629 42.0969C58.9033 42.0969 60.5514 43.6523 61.0055 44.131C61.3461 44.4906 61.331 45.0601 60.9715 45.4007C60.612 45.7413 60.0424 45.7262 59.7018 45.3667C59.3726 45.0204 58.188 43.8945 56.6648 43.8945C56.6534 43.8945 56.644 43.8945 56.6326 43.8945C55.6638 43.904 54.7309 44.3959 53.8586 45.3534C53.6807 45.5483 53.4385 45.6467 53.1925 45.6467V45.6486Z" fill="black"/>
<path d="M52.4034 56.7163H45.1013C44.789 56.7163 44.5014 56.5554 44.3368 56.2905C44.1722 56.0256 44.1589 55.6945 44.2971 55.4163L47.9491 48.1142C48.1005 47.8095 48.4127 47.6165 48.7533 47.6165C49.0939 47.6165 49.4042 47.8095 49.5575 48.1142L53.2095 55.4163C53.3495 55.6945 53.3344 56.0256 53.1698 56.2905C53.0051 56.5554 52.7175 56.7163 52.4053 56.7163H52.4034ZM46.5564 54.9187H50.9502L48.7533 50.5249L46.5564 54.9187Z" fill="black"/>
<path d="M48.7533 73.5023C43.1826 73.5023 38.6526 69.4056 38.6526 64.3704C38.6526 63.8746 39.0556 63.4716 39.5514 63.4716H57.9572C58.4529 63.4716 58.856 63.8746 58.856 64.3704C58.856 69.4056 54.324 73.5023 48.7552 73.5023H48.7533ZM40.5107 65.2692C41.0141 68.8909 44.5185 71.7047 48.7533 71.7047C52.9881 71.7047 56.4925 68.8909 56.9959 65.2692H40.5126H40.5107Z" fill="black"/>
<path d="M89.3209 65.8597C89.1506 65.8597 88.9784 65.8105 88.827 65.7102C88.4126 65.4359 88.299 64.8795 88.5715 64.4651C91.6029 59.8765 90.8328 53.055 86.8553 49.2591C86.6263 49.0415 86.3917 48.8315 86.1532 48.6328C85.3112 49.7114 84.3216 50.6159 83.243 51.2555C81.2335 52.4495 76.7394 53.4183 74.27 52.2205C73.2691 51.7342 72.6692 50.9394 72.5348 49.9195C72.3702 48.6688 72.7203 47.524 73.5453 46.6119C75.2994 44.6705 78.6657 44.2391 80.3763 44.2883C82.0679 44.3375 83.9355 44.9827 85.6878 46.0821C86.3879 44.8408 86.8912 43.4387 87.1126 42.0176C87.5781 39.026 86.2441 35.9284 83.8693 34.4846C83.7199 34.3938 83.5666 34.3086 83.4114 34.231C82.2704 36.2633 80.5258 38.0931 78.2986 39.5842C77.4755 40.1348 76.3685 40.7819 75.1026 40.9068C73.638 41.0487 72.2321 40.3884 71.6039 39.2587C70.4875 37.2567 71.9653 34.9974 73.8083 33.7447C76.4858 31.9263 79.7234 31.3189 82.4861 31.9982C83.4549 29.5061 83.3414 26.7984 82.172 24.7245C81.0234 22.6865 78.8133 21.1614 76.1093 20.537C75.9731 20.5048 75.8368 20.4764 75.7005 20.4518C75.7989 20.974 75.8576 21.5133 75.8728 22.0697C76.0109 26.77 73.0855 31.2224 71.5641 32.4561C67.5659 35.6937 63.9006 34.8479 61.9781 33.1411C59.8172 31.2224 59.3782 28.1835 60.9109 25.7519C63.6622 21.3866 68.3492 18.6788 73.0779 18.4782C72.4705 17.4148 71.5888 16.4668 70.4383 15.6399C70.3645 15.5869 62.8466 10.5535 54.6873 17.3183C52.6248 19.0288 52.1271 21.9694 52.0117 23.5702C51.8187 26.2931 52.4072 28.2951 52.6929 28.6868C53.0714 28.9082 53.2398 29.3793 53.0714 29.7975C52.8859 30.2573 52.3618 30.4806 51.902 30.2952C51.1678 30 50.6474 28.9082 50.3579 27.0538C49.8167 23.5891 50.3257 18.5974 53.5368 15.9331C57.0034 13.0588 60.9714 11.7153 65.0057 12.0503C68.1392 12.3095 70.5499 13.5092 71.4828 14.1753C73.1953 15.4033 74.412 16.8641 75.1253 18.5463C75.5908 18.5993 76.0525 18.6788 76.5123 18.7847C79.7083 19.5227 82.3423 21.3657 83.7369 23.8408C85.1617 26.3688 85.3226 29.6291 84.1778 32.6075C84.3916 32.7116 84.5997 32.827 84.8022 32.95C87.7825 34.7609 89.4609 38.604 88.8876 42.2938C88.6207 44.0082 88.0133 45.6753 87.1618 47.1399C87.4797 47.3991 87.7919 47.6735 88.0947 47.9611C90.3294 50.0955 91.7656 53.0796 92.1346 56.3664C92.5055 59.6513 91.7713 62.8813 90.0683 65.4604C89.8961 65.7216 89.6085 65.8635 89.3171 65.8635L89.3209 65.8597ZM80.0773 46.0802C78.2343 46.0802 75.9257 46.6592 74.8812 47.8154C74.4063 48.3395 74.2227 48.9526 74.3192 49.6849C74.3552 49.9631 74.4725 50.3188 75.0572 50.6026C76.7375 51.4182 80.522 50.7824 82.3271 49.7095C83.1919 49.1967 83.9961 48.4587 84.6943 47.5713C83.2297 46.6554 81.6952 46.1218 80.3252 46.0821C80.2438 46.0802 80.1606 46.0783 80.0773 46.0783V46.0802ZM80.2438 33.5101C78.2721 33.5101 76.2985 34.2254 74.8207 35.2283C73.797 35.9246 72.6087 37.3627 73.1763 38.3788C73.4583 38.884 74.1792 39.1868 74.9304 39.113C75.7933 39.0278 76.6126 38.5472 77.3014 38.0855C78.6827 37.1621 80.4406 35.6975 81.6762 33.6426C81.2032 33.5517 80.7225 33.5101 80.2438 33.5101ZM73.7118 20.2645C69.4051 20.2645 64.9357 22.7319 62.4322 26.7018C61.2023 28.6527 61.9535 30.7077 63.1721 31.7901C64.6367 33.09 67.3123 33.5801 70.4326 31.0521C71.5187 30.1722 74.1981 26.2231 74.077 22.117C74.0581 21.4717 73.971 20.8548 73.814 20.2645C73.7799 20.2645 73.7459 20.2645 73.7118 20.2645Z" fill="black"/>
<path d="M40.622 44.2655C40.846 43.3165 40.2583 42.3657 39.3094 42.1417C38.3604 41.9177 37.4095 42.5054 37.1856 43.4544C36.9616 44.4034 37.5493 45.3542 38.4983 45.5782C39.4472 45.8022 40.3981 45.2144 40.622 44.2655Z" fill="black"/>
</svg>
