<svg width="101" height="101" viewBox="0 0 101 101" fill="none" xmlns="http://www.w3.org/2000/svg">
<rect width="101" height="101" rx="50.5" fill="#DAE1FB"/>
<path d="M69.6856 41.247C87.1661 23.5141 75.6376 11.9876 57.9066 29.4681C57.7294 4.56917 41.4262 4.56917 41.247 29.4681C23.5141 11.9876 11.9876 23.516 29.4681 41.247C4.56922 41.4243 4.56922 57.7274 29.4681 57.9066C11.9876 75.6395 23.516 87.166 41.247 69.6855C41.4243 94.5844 57.7274 94.5844 57.9066 69.6855C75.6395 87.166 87.1661 75.6376 69.6856 57.9066C94.5845 57.7294 94.5845 41.4262 69.6856 41.247Z" fill="#725AFF"/>
<path d="M43.6804 47.4287C43.8395 46.4486 43.1739 45.5252 42.1939 45.3661C41.2138 45.207 40.2904 45.8725 40.1313 46.8526C39.9722 47.8326 40.6377 48.7561 41.6178 48.9152C42.5978 49.0743 43.5213 48.4087 43.6804 47.4287Z" fill="black"/>
<path d="M44.7192 25.9227C44.0853 29.549 41.2335 32.6147 37.5243 33.1484C35.5878 33.4278 33.5415 33.0213 31.8536 32.0405C31.1002 31.6031 30.2196 31.0154 29.7687 30.2446C29.2234 29.314 29.6897 28.2369 30.314 27.4719C31.5472 25.9612 33.6956 25.2155 35.4587 26.2522C36.9482 27.127 37.8519 28.8958 37.7979 30.6069C37.6631 34.8055 33.3199 37.139 29.6936 37.7729C27.3967 38.1737 24.9477 38.1949 22.6335 37.9347C20.3714 37.6823 18.1073 36.9887 16.3866 35.4433C15.5118 34.6572 14.2131 35.9482 15.0918 36.7382C18.9571 40.2104 24.9939 40.3568 29.8689 39.5899C34.4991 38.8596 39.8289 35.5493 39.6304 30.2312C39.5475 28.0095 38.3124 25.809 36.3855 24.6722C34.239 23.4062 31.6069 23.886 29.7533 25.4506C27.9228 26.996 26.9169 29.6319 28.5586 31.6763C30.0654 33.5531 32.5627 34.6494 34.9019 34.9597C40.3626 35.6842 45.5381 31.8362 46.4842 26.4121C46.6846 25.2599 44.9215 24.7646 44.7192 25.9246V25.9227Z" fill="black"/>
<path d="M56.0665 24.8263C55.9432 29.3582 59.2979 33.7862 63.8511 34.5184C66.0708 34.8748 68.3676 34.4432 70.3196 33.3237C72.2618 32.21 74.1521 30.2195 74.4488 27.9169C74.7475 25.6143 72.915 23.8551 70.6991 23.6913C68.252 23.5102 66.1479 25.3716 64.9031 27.3003C63.5736 29.3563 63.2672 31.9383 64.7355 34.0097C66.2384 36.1273 68.7029 37.0021 71.2001 37.243C77.4085 37.8422 83.9424 35.8999 89.1257 32.5356C90.1103 31.8959 89.1931 30.312 88.2027 30.9556C84.5725 33.3102 80.4298 34.8517 76.1194 35.3276C73.9902 35.5627 71.6895 35.6783 69.5989 35.1292C67.8204 34.6629 65.9706 33.4605 65.6122 31.5202C65.2519 29.574 66.6893 27.4969 68.1711 26.3716C69.3773 25.4544 71.8071 24.9303 72.545 26.755C73.2426 28.4815 71.2271 30.5413 69.938 31.4084C68.4774 32.3892 66.7413 32.8998 64.9802 32.8131C60.9029 32.6146 57.7911 28.7994 57.899 24.8263C57.9317 23.647 56.1012 23.6489 56.0685 24.8263H56.0665Z" fill="black"/>
<path d="M55.1591 49.8466C52.8777 49.8466 51.1994 48.2627 50.7369 47.7752C50.3901 47.4091 50.4055 46.8291 50.7716 46.4804C51.1377 46.1335 51.7177 46.1489 52.0645 46.515C52.3998 46.8677 53.606 48.0141 55.1571 48.0141C55.1687 48.0141 55.1784 48.0141 55.1899 48.0141C56.1765 48.0045 57.1264 47.5035 58.0147 46.5285C58.3538 46.1547 58.9338 46.1258 59.3076 46.4669C59.6814 46.806 59.7084 47.386 59.3693 47.7598C58.1264 49.1279 56.7256 49.8292 55.2092 49.8447C55.1918 49.8447 55.1745 49.8447 55.1591 49.8447V49.8466Z" fill="black"/>
<path d="M47.9391 56.396H44.7675C44.3937 56.396 44.0565 56.1686 43.9178 55.8218C43.779 55.475 43.8638 55.078 44.1355 54.8198C46.2146 52.8313 45.8485 50.3033 45.8331 50.1954C45.756 49.6982 46.0951 49.2281 46.5922 49.1491C47.0894 49.0681 47.5576 49.4034 47.6404 49.9006C47.6597 50.0181 48.0143 52.2879 46.6616 54.5674H47.941C48.4459 54.5674 48.8563 54.9778 48.8563 55.4827C48.8563 55.9875 48.4459 56.3979 47.941 56.3979L47.9391 56.396Z" fill="black"/>
<path d="M39.3008 62.0301C41.2104 63.5254 43.5187 64.6141 46.0005 64.4753C48.3205 64.3462 50.5325 63.3578 52.2706 61.8375C53.1588 61.0609 51.8601 59.7699 50.9757 60.5426C49.6173 61.7296 47.8118 62.5446 45.9986 62.6448C44.0236 62.7546 42.1276 61.9357 40.5938 60.7353C39.6766 60.0166 38.3721 61.3037 39.2989 62.0301H39.3008Z" fill="black"/>
<path d="M53.1877 63.8376C52.9854 63.8376 52.7811 63.7701 52.6116 63.6333C50.3822 61.8259 49.5883 59.136 49.5556 59.0224C49.4168 58.5368 49.6962 58.03 50.1818 57.8894C50.6674 57.7487 51.1741 58.03 51.3129 58.5137C51.3225 58.5464 51.995 60.7777 53.7619 62.2113C54.155 62.5292 54.2147 63.1054 53.8968 63.4985C53.7156 63.722 53.4517 63.8376 53.1858 63.8376H53.1877Z" fill="black"/>
</svg>
