<svg width="101" height="101" viewBox="0 0 101 101" fill="none" xmlns="http://www.w3.org/2000/svg">
<rect width="101" height="101" rx="50.5" fill="#CBC5ED"/>
<path d="M50.6543 26.8912C29.0333 26.8912 11.2413 43.2807 9.02272 64.3137C8.77299 66.6843 10.6133 68.7544 12.9966 68.7544H33.7346C35.6075 68.7544 37.2 67.4461 37.6361 65.6238C39.0458 59.7408 44.3388 55.3688 50.6525 55.3688C56.9662 55.3688 62.2593 59.7408 63.669 65.6238C64.1051 67.4461 65.6975 68.7544 67.5705 68.7544H88.3085C90.6917 68.7544 92.5321 66.6824 92.2824 64.3137C90.0638 43.2807 72.2718 26.8912 50.6507 26.8912H50.6543Z" fill="#725AFF"/>
<path d="M71.1009 41.9669H30.2094C29.7353 41.9669 29.3499 41.5814 29.3499 41.1073C29.3499 40.6332 29.7353 40.2477 30.2094 40.2477H71.1009C71.575 40.2477 71.9605 40.6332 71.9605 41.1073C71.9605 41.5814 71.575 41.9669 71.1009 41.9669Z" fill="black"/>
<path d="M42.6195 41.1074H35.5386C36.1882 43.7349 39.697 47.6762 42.6195 47.6762C45.542 47.6762 49.0509 43.7349 49.7005 41.1074H42.6195Z" fill="black"/>
<path d="M58.6906 41.1074H51.6096C52.2593 43.7349 55.7681 47.6762 58.6906 47.6762C61.6131 47.6762 65.1219 43.7349 65.7715 41.1074H58.6906Z" fill="black"/>
<path d="M54.6317 33.0783C56.0631 29.2998 57.2701 25.4237 58.0682 21.4606C58.2853 20.3803 56.6296 19.9189 56.4106 21.0028C55.6126 24.9658 54.4056 28.842 52.9742 32.6204C52.5815 33.6555 54.2427 34.1043 54.6317 33.0783Z" fill="black"/>
<path d="M52.2141 32.85C52.4584 28.5142 52.7498 24.1748 52.7842 19.8299C52.7932 18.7243 51.0741 18.7225 51.065 19.8299C51.0307 24.1748 50.7411 28.5142 50.495 32.85C50.4335 33.9557 52.1526 33.9521 52.2141 32.85Z" fill="black"/>
<path d="M49.6157 32.528C49.167 29.0083 48.8557 25.4416 48.8449 21.8912C48.8412 20.7855 47.1221 20.7837 47.1257 21.8912C47.1366 25.4416 47.4478 29.0083 47.8966 32.528C48.0342 33.6101 49.7551 33.6246 49.6157 32.528Z" fill="black"/>
<path d="M46.9863 32.2983C45.8299 28.3298 45.2762 24.2003 44.9288 20.0907C44.8365 18.9959 43.1174 18.9869 43.2096 20.0907C43.5679 24.3487 44.1307 28.6429 45.3287 32.7543C45.6381 33.8147 47.2975 33.3641 46.9863 32.2965V32.2983Z" fill="black"/>
<path d="M54.9902 52.7321H46.3185C45.8444 52.7321 45.459 52.3467 45.459 51.8726C45.459 51.3984 45.8444 51.013 46.3185 51.013H54.9902C55.4643 51.013 55.8497 51.3984 55.8497 51.8726C55.8497 52.3467 55.4643 52.7321 54.9902 52.7321Z" fill="black"/>
</svg>
