<svg width="375" height="334" viewBox="0 0 375 334" fill="none" xmlns="http://www.w3.org/2000/svg">
<g clip-path="url(#clip0_2018_1053)">
<rect width="375" height="334" fill="#30459D"/>
<path d="M422.546 171.254C415.438 132.253 395.51 84.2966 363.099 42.7775C331.122 2.12208 286.664 -32.0961 240.443 -23.5456C193.839 -17.3367 162.185 28.9638 144.383 77.5282C126.438 127.048 122.356 178.83 127.685 218.103C133.568 257.957 154.407 287.272 185.757 310.518C216.799 332.859 258.35 349.119 298.552 342.117C338.947 336.325 373.41 307.975 395.999 277.114C418.6 245.295 429.327 210.965 422.567 171.25L422.546 171.254Z" fill="#FFA300"/>
<path d="M315.984 240.727C311.382 236.145 306.653 231.469 300.763 228.721C294.88 225.973 287.51 225.473 282.147 229.141C276.651 232.897 274.543 239.907 273.223 246.43C272.316 250.919 272.015 256.515 275.791 259.11C278.812 261.184 283.154 260.077 285.842 257.589C288.53 255.101 289.944 251.566 291.285 248.158C298.269 248.738 304.131 255.048 306.252 261.724C308.374 268.401 306.759 275.965 302.724 281.694C298.689 287.417 292.439 291.372 285.736 293.4C282.841 294.274 279.786 294.834 277.211 296.428C274.637 298.022 272.609 301.017 273.283 303.965C274.13 307.681 278.485 309.275 282.247 309.862C293.526 311.609 305.325 309.782 315.55 304.712C329.704 307.647 340.563 317.532 350.154 328.338C359.746 339.143 368.223 351.149 379.656 360L441.16 349.195C400.8 299.83 362.374 248.885 325.989 196.519C323.915 193.53 321.6 190.349 318.145 189.215C314.69 188.081 309.607 191.629 309.814 195.265L315.984 240.741V240.727Z" fill="#0078FF"/>
<path d="M295.534 200.887C294.373 196.318 297.815 192.65 300.543 192.11C303.271 191.569 306.119 192.543 308.4 194.137C310.675 195.731 312.476 197.899 314.25 200.04C318.672 205.383 323.094 210.726 327.516 216.068L295.534 200.887Z" fill="#0078FF"/>
<path d="M311.408 237.205C307.9 232.57 303.111 224.993 298.575 221.344C294.046 217.702 288.363 215.148 282.561 215.495C279.986 215.648 277.345 216.042 274.95 215.081C268.447 212.486 268.854 196.965 290.438 199.6C297.495 200.46 303.611 205.063 308.88 209.832C314.15 214.601 318.559 220.237 322.934 225.846L311.415 237.199L311.408 237.205Z" fill="#0078FF"/>
<path d="M312.389 196.585L297.101 201.548L311.408 239.907L322.927 249.078L312.389 196.585Z" fill="#0078FF"/>
<path d="M441.166 350.635C440.726 350.635 440.299 350.442 440.012 350.068L433.929 342.151C405.195 304.772 345.412 227.007 324.802 197.332C324.341 196.672 324.508 195.765 325.168 195.311C325.829 194.851 326.729 195.011 327.189 195.678C347.766 225.293 407.523 303.025 436.237 340.383L442.32 348.301C442.807 348.934 442.687 349.855 442.053 350.342C441.787 350.542 441.48 350.642 441.166 350.642V350.635Z" fill="#090A0A"/>
<path d="M290.671 311.956C287.777 311.956 284.882 311.736 282.027 311.296C276.304 310.409 272.689 307.921 271.862 304.292C271.682 303.505 272.176 302.731 272.956 302.551C273.73 302.358 274.517 302.865 274.697 303.645C275.43 306.867 279.879 308.021 282.467 308.421C293.426 310.128 304.952 308.341 314.903 303.405C315.617 303.052 316.498 303.345 316.851 304.059C317.211 304.779 316.918 305.653 316.197 306.013C308.307 309.922 299.482 311.956 290.671 311.956Z" fill="#090A0A"/>
<path d="M315.991 242.181C315.617 242.181 315.25 242.041 314.963 241.761C310.495 237.312 305.879 232.717 300.156 230.042C295.354 227.794 288.317 226.7 282.981 230.349C282.32 230.802 281.413 230.636 280.96 229.969C280.506 229.308 280.673 228.401 281.34 227.948C287.683 223.605 295.854 224.826 301.39 227.407C307.573 230.302 312.589 235.291 317.018 239.7C317.585 240.267 317.591 241.188 317.018 241.754C316.731 242.041 316.357 242.181 315.984 242.181H315.991Z" fill="#090A0A"/>
<path d="M327.516 217.523C327.096 217.523 326.683 217.342 326.396 216.996L313.129 200.961C311.435 198.92 309.687 196.805 307.566 195.325C306.906 194.865 306.746 193.957 307.206 193.297C307.666 192.643 308.573 192.477 309.234 192.944C311.682 194.651 313.556 196.919 315.37 199.107L328.637 215.141C329.15 215.755 329.064 216.675 328.443 217.189C328.17 217.416 327.843 217.523 327.516 217.523Z" fill="#090A0A"/>
<path d="M322.934 227.307C322.5 227.307 322.074 227.114 321.787 226.747C317.511 221.271 313.089 215.614 307.906 210.919C303.037 206.51 297.134 201.888 290.264 201.047C279.886 199.78 275.744 202.922 274.19 204.909C273.696 205.543 272.782 205.65 272.149 205.156C271.515 204.662 271.402 203.749 271.902 203.115C273.829 200.647 278.825 196.718 290.618 198.159C298.342 199.1 304.958 204.315 309.861 208.758C315.237 213.62 319.732 219.383 324.081 224.952C324.575 225.586 324.461 226.5 323.828 226.994C323.561 227.2 323.247 227.3 322.934 227.3V227.307Z" fill="#090A0A"/>
<path d="M285.842 259.043C285.522 259.043 285.195 258.936 284.928 258.716C284.308 258.209 284.208 257.296 284.715 256.669C288.47 252.046 290.171 247.771 289.771 243.976C289.384 240.307 287.076 238.353 287.049 238.339C286.423 237.833 286.329 236.919 286.829 236.292C287.336 235.665 288.25 235.565 288.877 236.072C289.01 236.178 292.145 238.76 292.666 243.675C293.153 248.264 291.238 253.26 286.976 258.503C286.689 258.856 286.269 259.043 285.842 259.043Z" fill="#090A0A"/>
<path d="M224.632 240.727C229.234 236.145 233.963 231.469 239.853 228.721C245.736 225.973 253.106 225.473 258.469 229.141C263.965 232.897 266.072 239.907 267.393 246.43C268.3 250.919 268.6 256.515 264.825 259.11C261.804 261.184 257.461 260.077 254.773 257.589C252.085 255.101 250.671 251.566 249.331 248.158C242.347 248.738 236.484 255.048 234.363 261.724C232.242 268.401 233.856 275.965 237.892 281.694C241.927 287.417 248.177 291.372 254.88 293.4C257.775 294.274 260.83 294.834 263.404 296.428C265.979 298.016 268.007 301.017 267.333 303.965C266.486 307.681 262.13 309.275 258.369 309.862C247.09 311.609 235.29 309.782 225.065 304.712C210.912 307.647 200.053 317.532 190.461 328.338C180.87 339.143 172.392 351.149 160.96 360L99.4561 349.195C139.816 299.83 178.242 248.885 214.627 196.519C216.701 193.53 219.016 190.349 222.471 189.215C225.926 188.081 231.008 191.629 230.802 195.265L224.632 240.741V240.727Z" fill="#0078FF"/>
<path d="M245.082 200.887C246.243 196.318 242.801 192.65 240.073 192.11C237.345 191.569 234.497 192.543 232.216 194.137C229.934 195.731 228.14 197.899 226.366 200.04C221.944 205.383 217.522 210.726 213.099 216.068L245.082 200.887Z" fill="#0078FF"/>
<path d="M229.207 237.205C232.716 232.57 237.505 224.993 242.04 221.344C246.569 217.702 252.252 215.148 258.055 215.495C260.63 215.648 263.271 216.042 265.666 215.081C272.169 212.486 271.762 196.965 250.178 199.6C243.121 200.46 237.005 205.063 231.735 209.832C226.466 214.607 222.057 220.237 217.682 225.846L229.201 237.199L229.207 237.205Z" fill="#0078FF"/>
<path d="M228.233 196.585L243.521 201.548L229.207 239.907L217.688 249.078L228.233 196.585Z" fill="#0078FF"/>
<path d="M99.456 350.636C99.1492 350.636 98.8357 350.535 98.5689 350.335C97.9353 349.848 97.8085 348.935 98.3021 348.294L104.292 340.504C133.033 303.118 192.836 225.326 213.433 195.678C213.886 195.018 214.794 194.851 215.454 195.311C216.114 195.772 216.281 196.672 215.821 197.332C195.184 227.041 135.354 304.866 106.593 342.271L100.603 350.062C100.316 350.435 99.8829 350.629 99.4494 350.629L99.456 350.636Z" fill="#090A0A"/>
<path d="M249.951 311.956C241.14 311.956 232.309 309.922 224.425 306.013C223.705 305.653 223.411 304.786 223.771 304.059C224.125 303.338 224.999 303.052 225.719 303.405C235.664 308.341 247.19 310.115 258.155 308.421C260.743 308.021 265.192 306.867 265.926 303.645C266.106 302.865 266.873 302.358 267.667 302.551C268.447 302.731 268.941 303.512 268.76 304.292C267.933 307.921 264.325 310.409 258.595 311.296C255.741 311.736 252.846 311.956 249.951 311.956Z" fill="#090A0A"/>
<path d="M224.632 242.181C224.258 242.181 223.885 242.041 223.598 241.754C223.031 241.187 223.031 240.267 223.598 239.7C228.02 235.291 233.043 230.302 239.226 227.407C244.762 224.819 252.932 223.605 259.276 227.947C259.936 228.401 260.109 229.308 259.656 229.968C259.202 230.635 258.295 230.802 257.635 230.348C252.299 226.7 245.262 227.794 240.46 230.042C234.73 232.723 230.114 237.312 225.652 241.761C225.372 242.041 224.999 242.181 224.625 242.181H224.632Z" fill="#090A0A"/>
<path d="M213.099 217.522C212.772 217.522 212.446 217.409 212.172 217.189C211.552 216.675 211.465 215.761 211.979 215.141L225.245 199.106C227.06 196.912 228.941 194.651 231.382 192.937C232.042 192.47 232.949 192.636 233.409 193.29C233.87 193.95 233.71 194.858 233.049 195.318C230.928 196.805 229.174 198.92 227.487 200.961L214.22 216.989C213.933 217.335 213.52 217.515 213.099 217.515V217.522Z" fill="#090A0A"/>
<path d="M217.688 227.307C217.375 227.307 217.061 227.207 216.794 227.001C216.161 226.507 216.047 225.593 216.541 224.96C220.883 219.39 225.379 213.634 230.761 208.765C235.664 204.323 242.287 199.107 250.004 198.166C261.79 196.725 266.793 200.654 268.72 203.122C269.214 203.756 269.107 204.669 268.474 205.163C267.84 205.657 266.926 205.55 266.433 204.916C264.878 202.929 260.716 199.787 250.358 201.054C243.488 201.895 237.585 206.517 232.716 210.926C227.52 215.628 223.104 221.284 218.835 226.754C218.549 227.121 218.122 227.314 217.688 227.314V227.307Z" fill="#090A0A"/>
<path d="M254.773 259.043C254.353 259.043 253.926 258.856 253.64 258.503C249.377 253.254 247.463 248.264 247.95 243.675C248.47 238.76 251.605 236.178 251.739 236.072C252.366 235.565 253.279 235.665 253.786 236.292C254.287 236.912 254.193 237.826 253.573 238.333C253.246 238.606 246.196 244.709 255.901 256.669C256.408 257.296 256.314 258.209 255.687 258.716C255.42 258.936 255.094 259.043 254.773 259.043Z" fill="#090A0A"/>
<path d="M322.19 103.66C327.343 103.66 331.52 99.4828 331.52 94.33C331.52 89.1772 327.343 85 322.19 85C317.037 85 312.86 89.1772 312.86 94.33C312.86 99.4828 317.037 103.66 322.19 103.66Z" fill="#090A0A"/>
<path d="M225.33 103.66C230.483 103.66 234.66 99.4828 234.66 94.33C234.66 89.1772 230.483 85 225.33 85C220.177 85 216 89.1772 216 94.33C216 99.4828 220.177 103.66 225.33 103.66Z" fill="#090A0A"/>
<path d="M280.28 149.68H260.35C258.32 149.68 256.51 148.39 255.86 146.46C255.2 144.54 255.84 142.41 257.45 141.17C264.93 135.39 265.94 117.84 265.7 111.57C265.6 108.95 267.64 106.74 270.26 106.64C272.85 106.55 275.09 108.57 275.19 111.19C275.28 113.36 275.67 128.78 269.96 140.18H280.28C282.9 140.18 285.03 142.31 285.03 144.93C285.03 147.55 282.9 149.68 280.28 149.68Z" fill="#090A0A"/>
<path d="M272.39 180.25C271.64 180.25 270.88 180.23 270.11 180.2C245 179.09 235.47 163.4 235.08 162.73C233.75 160.47 234.5 157.56 236.76 156.23C239.01 154.9 241.91 155.64 243.25 157.88C243.59 158.44 250.87 169.84 270.54 170.71C289.87 171.55 296.98 158.66 297.28 158.11C298.51 155.81 301.38 154.92 303.69 156.13C306 157.34 306.91 160.18 305.71 162.5C305.33 163.25 296.27 180.25 272.41 180.25H272.39Z" fill="#090A0A"/>
<path d="M336.072 59.39C335.392 59.39 334.702 59.2401 334.052 58.9401L283.732 35.3001C281.952 34.4601 280.872 32.6201 281.012 30.6501L285.212 -26.86C285.372 -29 286.942 -30.77 289.052 -31.18C291.152 -31.59 293.282 -30.5299 294.222 -28.5999L309.412 2.59006L342.602 -35.3799C343.992 -36.9699 346.282 -37.45 348.202 -36.55C350.122 -35.65 351.212 -33.59 350.872 -31.49L342.832 18.3001L376.532 10.0801C378.612 9.57005 380.782 10.5201 381.822 12.4101C382.852 14.2901 382.502 16.6301 380.952 18.1201L339.362 58.0601C338.462 58.9301 337.272 59.3801 336.072 59.3801V59.39ZM290.722 28.08L335.132 48.95L361.642 23.4901L338.122 29.2301C336.572 29.6101 334.942 29.1801 333.772 28.1001C332.602 27.0201 332.052 25.4301 332.302 23.8501L338.842 -16.6499L311.842 14.2301C310.792 15.4301 309.212 16.0201 307.642 15.8101C306.062 15.6001 304.692 14.6101 304.002 13.1801L293.402 -8.58993L290.722 28.07V28.08Z" fill="#090A0A"/>
<path d="M187.165 51.7144C172.755 51.7144 158.945 46.3243 149.335 36.0743C140.325 26.4743 135.515 12.8144 136.125 -1.40564C136.815 -17.2856 143.825 -31.9756 155.865 -42.7856C157.815 -44.5356 160.816 -44.3757 162.576 -42.4257C164.326 -40.4757 164.166 -37.4656 162.216 -35.7156C152.086 -26.6356 146.195 -14.3057 145.615 -0.99567C145.115 10.6843 148.996 21.8243 156.256 29.5743C168.896 43.0443 190.645 46.1243 209.155 37.0743C211.515 35.9243 214.356 36.8943 215.506 39.2543C216.656 41.6143 215.686 44.4544 213.326 45.6044C204.916 49.7144 195.925 51.7144 187.155 51.7144H187.165Z" fill="#090A0A"/>
<path d="M177.566 66.7641C165.716 66.7641 148.546 64.1042 132.996 51.6742C111.746 34.6842 107.746 10.7441 107.026 3.81414C106.756 1.20414 108.656 -1.12582 111.256 -1.39583C113.876 -1.66583 116.196 0.234156 116.476 2.83416C117.096 8.84416 120.555 29.5741 138.925 44.2541C160.085 61.1641 184.756 57.1542 189.486 56.1742C192.056 55.6442 194.565 57.2942 195.095 59.8642C195.625 62.4342 193.975 64.9442 191.405 65.4742C189.415 65.8842 184.366 66.7641 177.576 66.7641H177.566Z" fill="#090A0A"/>
</g>
<defs>
<clipPath id="clip0_2018_1053">
<rect width="375" height="334" fill="white"/>
</clipPath>
</defs>
</svg>
