<svg width="327" height="88" viewBox="0 0 327 88" fill="none" xmlns="http://www.w3.org/2000/svg">
<g clip-path="url(#clip0_2025_1257)">
<rect width="327" height="88" fill="#30459D"/>
<path opacity="0.2" d="M202.5 54.0412C190.9 54.4412 181.333 79.8746 178 92.5412C216 120.041 339.5 119.5 339.5 112.5C339.5 105.5 333 38.5412 328 27.5412C323 16.5412 284.5 8.54123 270.5 9.04123C256.5 9.54123 242 27.0412 235 40.5412C228 54.0412 217 53.5412 202.5 54.0412Z" fill="white"/>
<circle cx="282" cy="42" r="18" fill="#FFF9D9"/>
<path d="M282.373 44.2927C282.373 45.6543 281.268 46.7595 279.906 46.7595C278.544 46.7595 277.439 45.6543 277.439 44.2927C277.439 42.9311 278.544 41.8259 279.906 41.8259C281.268 41.8259 282.373 42.9311 282.373 44.2927Z" fill="black"/>
<path d="M252.446 46.7595C253.809 46.7595 254.913 45.6551 254.913 44.2927C254.913 42.9303 253.809 41.8259 252.446 41.8259C251.084 41.8259 249.98 42.9303 249.98 44.2927C249.98 45.6551 251.084 46.7595 252.446 46.7595Z" fill="black"/>
<path d="M293.097 64.4263H239.256C238.563 64.4263 238 63.8631 238 63.1704C238 62.4777 238.563 61.9146 239.256 61.9146H293.097C293.789 61.9146 294.353 62.4777 294.353 63.1704C294.353 63.8631 293.789 64.4263 293.097 64.4263Z" fill="black"/>
<path d="M279.904 54.5803C274.23 54.5803 269.613 49.964 269.613 44.2901C269.613 38.6163 274.23 34 279.904 34C285.577 34 290.194 38.6163 290.194 44.2901C290.194 49.964 285.577 54.5803 279.904 54.5803ZM279.904 36.5144C275.615 36.5144 272.125 40.0043 272.125 44.2928C272.125 48.5812 275.615 52.0712 279.904 52.0712C284.192 52.0712 287.682 48.5812 287.682 44.2928C287.682 40.0043 284.192 36.5144 279.904 36.5144Z" fill="black"/>
<path d="M309.201 77.8176C308.532 77.8176 307.977 77.2888 307.948 76.6146C307.94 76.4058 307.03 55.6484 304.997 48.8244C303.543 43.9384 293.081 44.7871 289.173 45.5248C288.494 45.6543 287.835 45.2049 287.706 44.5254C287.576 43.8433 288.023 43.1876 288.705 43.058C289.369 42.9311 305.008 40.0625 307.406 48.1079C309.526 55.228 310.42 75.6417 310.457 76.5062C310.486 77.199 309.949 77.7859 309.256 77.815C309.238 77.815 309.219 77.815 309.201 77.815V77.8176Z" fill="black"/>
</g>
<defs>
<clipPath id="clip0_2025_1257">
<rect width="327" height="88" fill="white"/>
</clipPath>
</defs>
</svg>
