<svg width="375" height="594" viewBox="0 0 375 594" fill="none" xmlns="http://www.w3.org/2000/svg">
<g clip-path="url(#clip0_2010_1018)">
<rect width="375" height="594" fill="white"/>
<rect y="-218" width="375" height="812" fill="white"/>
<circle cx="187.5" cy="333.5" r="333.5" fill="#F7F9FA"/>
<path d="M327.147 83.735C296.17 79.9753 268.011 102.039 264.251 133.016L259.808 169.629C256.048 200.606 278.111 228.765 309.089 232.525C340.066 236.285 368.225 214.221 371.984 183.244L376.428 146.631C380.188 115.654 358.124 87.4947 327.147 83.735Z" fill="#FF3B8B"/>
<path d="M331.515 140.537C331.267 142.577 329.411 144.031 327.371 143.784C325.331 143.536 323.876 141.68 324.124 139.64C324.372 137.6 326.228 136.145 328.268 136.393C330.308 136.64 331.762 138.497 331.515 140.537Z" fill="black"/>
<path d="M290.382 135.544C290.135 137.584 288.278 139.039 286.238 138.791C284.199 138.544 282.744 136.687 282.991 134.647C283.239 132.608 285.096 131.153 287.135 131.4C289.175 131.648 290.63 133.505 290.382 135.544Z" fill="black"/>
<path d="M305.252 162.971L294.574 161.675C293.924 161.596 293.359 161.186 293.082 160.589C292.805 159.993 292.857 159.3 293.216 158.753L303.851 142.561C304.423 141.686 305.598 141.442 306.477 142.015C307.352 142.592 307.595 143.767 307.023 144.642L298.068 158.281L305.713 159.209C306.75 159.335 307.492 160.281 307.366 161.318C307.24 162.356 306.294 163.097 305.256 162.971L305.252 162.971Z" fill="black"/>
<path d="M292.83 78.2195C287.842 82.4933 282.914 87.2044 278.959 92.4677C275.614 96.9168 274.464 102.951 279.625 106.551C284.005 109.607 290.101 109.876 295.248 109.725C301.303 109.544 307.371 108.062 312.836 105.45C317.529 103.206 324.139 99.5429 323.921 93.4957C323.701 87.4243 317.168 84.7223 311.912 85.483C306.516 86.2629 301.281 89.5904 298.732 94.4657C296.214 99.2804 297.3 105.071 300.52 109.272C304.604 114.599 311.439 116.501 317.915 115.957C325.143 115.347 331.603 111.662 337.587 107.827C339.644 106.509 337.288 103.534 335.248 104.842C327.347 109.908 316.578 115.481 307.342 110.281C303.84 108.309 301.117 104.453 301.089 100.346C301.057 96.0058 304.297 92.4603 308.009 90.6481C311.503 88.9461 318.88 87.639 320.063 92.9953C321.049 97.4516 314.203 100.616 311.049 102.098C306.863 104.062 302.386 105.287 297.791 105.762C293.403 106.218 288.364 106.205 284.177 104.648C282.423 103.997 280.448 102.921 279.882 100.992C279.098 98.3405 281.204 95.6661 282.761 93.7651C286.489 89.2018 290.697 85.0342 295.169 81.2002C297.017 79.616 294.688 76.6243 292.831 78.2156L292.83 78.2195Z" fill="black"/>
<path d="M280.874 180.305C290.611 181.41 300.344 182.515 310.08 183.62L308.427 181.511C308.374 181.886 308.285 182.253 308.196 182.62C308.312 182.164 308.002 183.26 307.944 183.441C307.773 183.959 307.578 184.47 307.364 184.975C306.291 187.493 304.603 189.772 302.276 191.266C299.002 193.373 294.096 193.955 290.417 192.676C287.02 191.496 285.173 188.133 284.139 184.893C283.452 182.74 283.04 180.407 282.974 178.14C282.907 175.708 279.156 176.282 279.224 178.702C279.401 185.025 281.906 192.732 287.909 195.728C292.119 197.826 298.147 197.437 302.355 195.512C305.743 193.962 308.346 191.259 310.095 188.007C311.091 186.159 311.88 184.056 312.186 181.967C312.333 180.96 311.532 179.97 310.533 179.857C300.796 178.752 291.064 177.647 281.327 176.542C278.904 176.268 278.444 180.03 280.87 180.304L280.874 180.305Z" fill="black"/>
<path d="M210.791 26.7758C203.306 28.5907 205.046 35.7668 197.557 37.5826C190.068 39.3984 188.332 32.2213 180.843 34.0371C173.354 35.8529 175.098 43.0281 167.609 44.8439C160.12 46.6597 158.383 39.4826 150.898 41.2975C143.413 43.1124 145.153 50.2886 137.667 52.1034C130.182 53.9183 128.442 46.7422 120.953 48.5579C113.464 50.3737 115.208 57.549 107.719 59.3648C100.23 61.1805 98.4938 54.0035 91.0085 55.8184C83.5232 57.6332 85.2632 64.8094 77.7779 66.6243C70.2926 68.4392 68.5527 61.263 61.0674 63.0779C60.1327 63.3045 59.3388 63.6139 58.6583 63.9893C51.6777 67.8054 48.3588 76.0367 50.2325 83.7648L63.1214 136.924C64.9961 144.655 71.7164 150.453 79.6686 150.644C80.4483 150.662 81.2929 150.578 82.2276 150.351C89.7129 148.536 87.973 141.36 95.4583 139.545C102.944 137.73 104.683 144.906 112.169 143.091C119.654 141.277 117.914 134.1 125.399 132.286C132.885 130.471 134.625 137.647 142.114 135.831C149.603 134.015 147.859 126.84 155.348 125.024C162.837 123.208 164.573 130.385 172.058 128.571C179.544 126.756 177.804 119.58 185.289 117.765C192.774 115.95 194.514 123.126 202.003 121.31C209.492 119.494 207.749 112.319 215.237 110.503C222.726 108.688 224.466 115.864 231.952 114.049C232.886 113.822 233.68 113.513 234.361 113.137C241.341 109.321 244.66 101.09 242.786 93.3582L229.898 40.2032C228.023 32.4713 221.303 26.6742 213.35 26.4789C212.57 26.4615 211.725 26.5455 210.791 26.7721L210.791 26.7758Z" fill="#01CCD2"/>
<path d="M167.005 74.6418C167.465 76.5371 166.3 78.4483 164.404 78.9078C162.509 79.3673 160.598 78.2021 160.138 76.3068C159.679 74.4116 160.844 72.5003 162.739 72.0408C164.635 71.5813 166.546 72.7466 167.005 74.6418Z" fill="black"/>
<path d="M126.183 88.175C128.079 87.7153 129.244 85.8053 128.784 83.909C128.324 82.0128 126.415 80.8482 124.518 81.308C122.622 81.7678 121.457 83.6777 121.917 85.574C122.377 87.4703 124.287 88.6348 126.183 88.175Z" fill="black"/>
<path d="M188.727 99.0468L113.786 117.217C112.821 117.451 111.848 116.857 111.614 115.893C111.38 114.929 111.974 113.955 112.938 113.721L187.879 95.5507C188.843 95.3169 189.817 95.9107 190.051 96.8749C190.285 97.8391 189.691 98.813 188.727 99.0468Z" fill="black"/>
<path d="M167.04 89.7945C159.143 91.7093 151.16 86.8418 149.245 78.9443C147.33 71.0469 152.197 63.0636 160.095 61.1487C167.992 59.2339 175.976 64.1014 177.89 71.9989C179.805 79.8963 174.938 87.8797 167.04 89.7945ZM160.943 64.6485C154.974 66.0957 151.294 72.1313 152.742 78.1003C154.189 84.0694 160.224 87.7493 166.194 86.3021C172.163 84.8548 175.843 78.8193 174.395 72.8502C172.948 66.8811 166.912 63.2012 160.943 64.6485Z" fill="black"/>
<path d="M215.661 112.251C214.73 112.477 213.779 111.928 213.511 111C213.43 110.712 205.158 82.1264 200.025 73.3143C196.352 67.0042 182.077 71.7163 176.887 74.0618C175.985 74.4714 174.917 74.068 174.507 73.1659C174.096 72.2602 174.497 71.1968 175.403 70.7862C176.284 70.3856 197.083 61.1149 203.136 71.5041C208.49 80.699 216.624 108.811 216.967 110.002C217.241 110.957 216.692 111.955 215.738 112.229C215.712 112.235 215.686 112.241 215.661 112.248L215.661 112.251Z" fill="black"/>
<path d="M150.422 36.2465L119.071 43.8478C118.107 44.0815 117.133 43.4877 116.899 42.5236C116.665 41.5594 117.259 40.5855 118.223 40.3517L149.574 32.7504C150.538 32.5166 151.512 33.1104 151.746 34.0746C151.98 35.0388 151.386 36.0127 150.422 36.2465Z" fill="black"/>
<path d="M138.203 17.7514L121.462 21.8103L125.952 40.3285L142.693 36.2695L138.203 17.7514Z" fill="black"/>
<path d="M193.938 142.604C148.321 132.246 102.932 158.301 88.1755 201.614C86.513 206.495 89.404 211.745 94.4322 212.886L138.185 222.821C142.137 223.718 146.123 221.721 147.916 218.085C153.709 206.349 166.971 199.66 180.291 202.685C193.612 205.71 202.685 217.469 202.841 230.557C202.888 234.61 205.621 238.133 209.572 239.031L253.325 248.965C258.353 250.107 263.229 246.617 263.837 241.5C269.232 196.062 239.546 152.96 193.93 142.602L193.938 142.604Z" fill="#725AFF"/>
<path d="M229.854 184.205L143.581 164.616C142.58 164.389 141.952 163.391 142.179 162.391C142.406 161.39 143.404 160.762 144.404 160.989L230.677 180.578C231.678 180.806 232.306 181.803 232.079 182.804C231.852 183.804 230.854 184.433 229.854 184.205Z" fill="black"/>
<path d="M170.175 168.748L155.236 165.356C155.348 171.211 160.863 181.207 167.029 182.607C173.195 184.007 182.486 177.372 185.115 172.14L170.175 168.748Z" fill="black"/>
<path d="M204.082 176.447L189.143 173.054C189.255 178.909 194.769 188.906 200.935 190.306C207.101 191.706 216.392 185.071 219.022 179.839L204.082 176.447Z" fill="black"/>
<path d="M199.365 157.563C204.195 150.277 208.599 142.677 212.181 134.698C213.157 132.523 209.884 130.756 208.903 132.938C205.321 140.917 200.918 148.517 196.088 155.803C194.763 157.798 198.053 159.541 199.365 157.563Z" fill="black"/>
<path d="M194.374 155.923C196.966 146.892 199.66 137.877 201.814 128.726C202.363 126.398 198.737 125.571 198.187 127.903C196.033 137.053 193.343 146.07 190.747 155.099C190.087 157.403 193.716 158.219 194.374 155.923Z" fill="black"/>
<path d="M189.046 153.999C189.785 146.358 190.837 138.684 192.515 131.188C193.037 128.853 189.411 128.026 188.888 130.364C187.21 137.86 186.158 145.534 185.419 153.175C185.19 155.524 188.814 156.379 189.046 153.999Z" fill="black"/>
<path d="M183.608 152.254C183.07 143.328 183.88 134.35 185.116 125.513C185.445 123.159 181.823 122.316 181.489 124.689C180.205 133.845 179.335 143.174 179.893 152.422C180.038 154.808 183.754 154.652 183.609 152.25L183.608 152.254Z" fill="black"/>
<path d="M190.706 199.2L172.41 195.046C171.41 194.819 170.781 193.821 171.009 192.821C171.236 191.82 172.234 191.192 173.234 191.419L191.529 195.573C192.53 195.8 193.158 196.798 192.931 197.798C192.704 198.799 191.706 199.427 190.706 199.2Z" fill="black"/>
<path d="M333.843 249.582C304.726 264.052 273.944 272.299 241.493 274.327C237.745 274.562 234.865 277.766 235.1 281.514C237.136 313.875 245.363 344.579 259.78 373.622C261.451 376.985 265.547 378.321 268.91 376.65C298.028 362.18 328.809 353.932 361.261 351.905C365.008 351.67 367.888 348.466 367.653 344.718C365.618 312.357 357.39 281.653 342.973 252.61C341.303 249.247 337.206 247.911 333.843 249.582Z" fill="#FFA300"/>
<path d="M316.795 298.36C318.376 297.936 319.314 296.311 318.891 294.731C318.467 293.15 316.842 292.212 315.262 292.635C313.681 293.059 312.743 294.684 313.166 296.265C313.59 297.845 315.215 298.783 316.795 298.36Z" fill="black"/>
<path d="M280.642 308.047C282.223 307.623 283.161 305.999 282.738 304.418C282.314 302.837 280.689 301.899 279.109 302.323C277.528 302.746 276.59 304.371 277.013 305.952C277.437 307.533 279.062 308.471 280.642 308.047Z" fill="black"/>
<path d="M320 310.321C311.828 312.511 303.395 307.642 301.205 299.469C299.015 291.297 303.884 282.864 312.057 280.674C320.229 278.485 328.662 283.353 330.852 291.526C333.041 299.698 328.173 308.131 320 310.321ZM312.837 283.589C306.269 285.349 302.36 292.121 304.12 298.689C305.879 305.257 312.651 309.166 319.219 307.406C325.787 305.647 329.697 298.875 327.937 292.307C326.177 285.739 319.405 281.829 312.837 283.589Z" fill="black"/>
<path d="M283.847 320.008C275.675 322.198 267.242 317.329 265.052 309.156C262.863 300.984 267.731 292.551 275.904 290.361C284.076 288.172 292.509 293.04 294.699 301.213C296.889 309.385 292.02 317.818 283.847 320.008ZM276.685 293.276C270.117 295.036 266.207 301.808 267.967 308.376C269.727 314.944 276.499 318.853 283.067 317.093C289.635 315.334 293.544 308.562 291.784 301.994C290.025 295.426 283.253 291.516 276.685 293.276Z" fill="black"/>
<path d="M303.053 300.536L293.632 303.06C292.828 303.276 292 302.797 291.784 301.994C291.569 301.19 292.047 300.361 292.851 300.146L302.272 297.622C303.076 297.406 303.904 297.885 304.12 298.688C304.335 299.492 303.857 300.321 303.053 300.536Z" fill="black"/>
<path d="M329.788 293.372C329.223 293.524 328.598 293.336 328.211 292.848C327.697 292.193 327.808 291.246 328.462 290.729L348.081 275.28C348.735 274.766 349.682 274.877 350.2 275.531C350.714 276.185 350.603 277.132 349.949 277.649L330.33 293.099C330.164 293.229 329.978 293.321 329.788 293.372Z" fill="black"/>
<path d="M266.9 310.223C266.707 310.275 266.504 310.29 266.294 310.257L241.579 306.687C240.755 306.569 240.181 305.802 240.302 304.978C240.42 304.154 241.188 303.583 242.012 303.701L266.727 307.271C267.551 307.389 268.125 308.156 268.004 308.981C267.916 309.596 267.464 310.072 266.9 310.223Z" fill="black"/>
<path d="M291.356 340.028C290.561 340.241 289.74 339.777 289.514 338.983C288.874 336.731 292.336 332.522 293.412 331.284C295.202 329.229 298.924 325.51 303.736 323.701C311.878 320.638 321.718 321.957 326.132 326.699C326.7 327.31 326.665 328.262 326.055 328.83C325.444 329.398 324.492 329.364 323.924 328.754C320.344 324.906 311.764 323.904 304.798 326.523C297.767 329.167 292.66 336.759 292.452 338.304C292.585 339.058 292.131 339.804 291.379 340.019C291.373 340.02 291.364 340.023 291.358 340.025L291.356 340.028Z" fill="black"/>
<path d="M289.996 279.382C285.582 280.565 280.714 281.379 275.797 281.707C264.256 282.478 254.582 280.461 249.252 276.167C248.602 275.645 248.499 274.696 249.022 274.046C249.545 273.396 250.494 273.293 251.144 273.816C261.256 281.957 289.101 279.441 301.077 271.53C306.363 268.039 311.106 262.806 315.174 255.975C318.852 249.798 321.627 242.988 324.314 236.399C324.626 235.628 325.507 235.258 326.279 235.574C327.051 235.89 327.421 236.767 327.105 237.539C324.377 244.231 321.558 251.148 317.764 257.517C313.463 264.743 308.406 270.303 302.738 274.047C299.492 276.19 295.039 278.027 289.993 279.379L289.996 279.382Z" fill="black"/>
<path d="M275.996 273.503C272.134 274.538 268.344 274.971 264.974 274.533C261.111 274.029 257.646 272.288 254.292 270.605L253.513 270.216C252.769 269.843 252.467 268.937 252.839 268.19C253.212 267.446 254.117 267.144 254.864 267.516L255.651 267.91C258.778 269.482 262.011 271.105 265.367 271.544C273.176 272.562 285.736 267.825 294.582 260.53C299.881 256.157 302.93 251.621 303.169 247.75C303.219 246.918 303.937 246.285 304.767 246.339C305.599 246.389 306.232 247.107 306.178 247.937C305.886 252.651 302.45 257.951 296.499 262.86C291.097 267.316 283.418 271.521 275.998 273.509L275.996 273.503Z" fill="black"/>
<path d="M58.3852 175.063C75.3921 150.294 55.1146 131.581 31.7864 150.514C7.01774 133.507 -11.6952 153.784 7.23745 177.113C-9.76947 201.881 10.508 220.594 33.8363 201.662C58.6049 218.668 77.3179 198.391 58.3852 175.063Z" fill="#FFA300"/>
<path d="M38.1126 170.932C37.9005 170.94 37.6854 170.873 37.5099 170.725C37.1359 170.412 37.0874 169.853 37.4004 169.479C38.5473 168.11 39.8726 167.379 41.3361 167.305C41.3529 167.305 41.3696 167.304 41.3845 167.303C43.5871 167.215 45.2687 168.679 45.7341 169.132C46.0831 169.472 46.0907 170.033 45.7507 170.383C45.4107 170.732 44.8501 170.74 44.4992 170.4C44.1599 170.069 42.9393 168.998 41.4238 169.074C40.4717 169.121 39.5739 169.642 38.754 170.617C38.5868 170.816 38.3526 170.922 38.1107 170.932L38.1126 170.932Z" fill="black"/>
<path d="M20.0767 171.655C19.8646 171.663 19.6495 171.595 19.474 171.448C19.1 171.135 19.0515 170.576 19.3645 170.202C20.5114 168.833 21.8368 168.102 23.3002 168.028C25.5301 167.922 27.229 169.398 27.6982 169.855C28.0472 170.195 28.0548 170.755 27.7147 171.104C27.3747 171.453 26.8141 171.461 26.4651 171.121C26.1258 170.79 24.9052 169.719 23.3897 169.795C22.4376 169.842 21.5398 170.362 20.7199 171.338C20.5527 171.537 20.3185 171.643 20.0766 171.653L20.0767 171.655Z" fill="black"/>
<path d="M33.0872 188.179C26.6784 188.436 22.217 182.423 22.0277 182.164C21.8345 181.899 21.8039 181.552 21.9467 181.258C22.0896 180.963 22.3819 180.773 22.7075 180.759L43.2603 179.936C43.5896 179.923 43.9002 180.095 44.0626 180.381C44.2269 180.667 44.2168 181.021 44.0379 181.298C43.8677 181.562 39.8099 187.756 33.3159 188.168C33.2397 188.171 33.1635 188.176 33.0872 188.179ZM24.6275 182.453C26.2435 184.095 29.3925 186.652 33.2042 186.402C36.9902 186.163 39.9168 183.496 41.4225 181.78L24.6256 182.453L24.6275 182.453Z" fill="black"/>
<path d="M67.6741 170.88C63.2428 171.058 58.5599 169.792 54.3117 167.24C50.2985 164.831 46.5641 161.243 43.2075 156.574C42.9233 156.177 43.0129 155.624 43.4096 155.34C43.8062 155.056 44.3595 155.145 44.6437 155.542C47.8583 160.014 51.4185 163.439 55.2217 165.724C59.6741 168.396 64.6136 169.555 69.1317 168.986C69.6156 168.926 70.0579 169.27 70.1202 169.753C70.1806 170.237 69.8368 170.68 69.353 170.742C68.7987 170.813 68.2377 170.857 67.6741 170.88Z" fill="black"/>
<path d="M66.4052 165.449C66.3884 165.449 66.3735 165.45 66.3568 165.451C62.4435 165.397 58.3833 164.093 54.6158 161.678C51.5272 159.699 48.597 156.974 45.6586 153.351C45.3509 152.972 45.4087 152.414 45.7895 152.106C46.1685 151.799 46.726 151.856 47.0338 152.237C49.8507 155.713 52.6437 158.314 55.5717 160.19C59.06 162.426 62.7995 163.633 66.3828 163.683C66.8713 163.69 67.2619 164.091 67.2554 164.58C67.2482 165.052 66.8741 165.434 66.4072 165.452L66.4052 165.449Z" fill="black"/>
<path d="M-2.3562 173.687C-2.91987 173.709 -3.48266 173.708 -4.04076 173.683C-4.52795 173.662 -4.906 173.248 -4.8846 172.759C-4.86314 172.272 -4.44973 171.894 -3.96068 171.916C0.588436 172.121 5.41937 170.571 9.64357 167.551C13.2537 164.969 16.5264 161.269 19.3728 156.555C19.6244 156.137 20.1687 156.003 20.5869 156.254C21.005 156.506 21.1386 157.05 20.8871 157.469C17.9148 162.389 14.4776 166.265 10.672 168.989C6.64163 171.871 2.07324 173.509 -2.3562 173.687Z" fill="black"/>
<path d="M-1.5243 168.171C-1.99124 168.19 -2.39466 167.841 -2.43964 167.369C-2.48522 166.883 -2.128 166.451 -1.64163 166.406C1.92623 166.071 5.55718 164.567 8.85535 162.059C11.6237 159.954 14.1978 157.138 16.7293 153.448C17.0057 153.046 17.555 152.944 17.9592 153.218C18.3616 153.494 18.4638 154.046 18.1892 154.448C15.5504 158.297 12.8476 161.247 9.92723 163.466C6.36506 166.174 2.42218 167.799 -1.47422 168.165C-1.49096 168.166 -1.50584 168.167 -1.52258 168.167L-1.5243 168.171Z" fill="black"/>
<path d="M244.861 379.326C228.784 361.573 212.611 345.4 194.858 329.323C183.715 319.23 166.716 319.23 155.573 329.323C137.82 345.4 121.647 361.573 105.57 379.326C95.4767 390.469 95.4767 407.468 105.57 418.611C121.647 436.364 137.82 452.537 155.573 468.614C166.716 478.707 183.715 478.707 194.858 468.614C212.611 452.537 228.784 436.364 244.861 418.611C254.954 407.468 254.954 390.469 244.861 379.326Z" fill="#FF3B8B"/>
<path d="M155.256 397.804C150.322 397.804 146.693 394.378 145.693 393.324C144.942 392.532 144.976 391.278 145.768 390.523C146.559 389.769 147.814 389.806 148.564 390.598C149.289 391.361 151.898 393.84 155.252 393.84C155.277 393.84 155.298 393.84 155.323 393.84C157.457 393.82 159.511 392.736 161.432 390.627C162.166 389.819 163.42 389.761 164.229 390.494C165.037 391.232 165.095 392.482 164.362 393.29C161.674 396.249 158.644 397.766 155.365 397.799C155.327 397.799 155.29 397.799 155.256 397.799V397.804Z" fill="black"/>
<path d="M195.658 397.804C190.724 397.804 187.095 394.378 186.094 393.324C185.344 392.532 185.378 391.278 186.169 390.523C186.965 389.769 188.216 389.806 188.966 390.598C189.691 391.361 192.299 393.84 195.654 393.84C195.679 393.84 195.7 393.84 195.725 393.84C197.859 393.82 199.913 392.736 201.834 390.627C202.568 389.819 203.822 389.761 204.63 390.494C205.439 391.232 205.497 392.482 204.764 393.29C202.076 396.249 199.046 397.766 195.767 397.799C195.729 397.799 195.692 397.799 195.658 397.799V397.804Z" fill="black"/>
<path d="M162.753 344.062C164.012 348.8 168.746 350.813 173.192 351.543C179.31 352.543 185.957 352.718 192.058 351.543C197.413 350.509 202.793 348.009 206.364 343.779C209.723 339.799 211.365 334.469 210.898 329.281C210.431 324.088 208.039 318.959 203.668 315.937C199.238 312.878 193.662 313.549 189.803 317.192C185.994 320.784 184.773 326.276 186.786 331.106C188.703 335.703 193.029 339.162 197.834 340.358C211.952 343.883 222.545 331.073 228.638 320.271C229.892 318.05 226.471 316.05 225.221 318.275C220.729 326.247 214.836 334.678 205.26 336.611C201.046 337.461 196.596 336.536 193.358 333.623C190.387 330.952 188.724 326.797 190.449 322.968C192.095 319.313 196.242 316.729 200.159 318.475C203.951 320.163 206.201 324.459 206.822 328.385C208.281 337.578 201.93 344.762 193.433 347.15C188.024 348.671 182.298 348.446 176.755 347.996C173.222 347.709 167.658 347.117 166.571 343.008C165.916 340.549 162.099 341.591 162.753 344.062Z" fill="black"/>
<path d="M200.726 379.322H149.706C148.614 379.322 147.726 378.434 147.726 377.342C147.726 376.25 148.614 375.363 149.706 375.363H200.726C201.817 375.363 202.705 376.25 202.705 377.342C202.705 378.434 201.817 379.322 200.726 379.322Z" fill="black"/>
<path d="M195.383 416.356C194.45 413.693 191.449 411.914 189.078 410.701C184.815 408.513 180.006 407.355 175.214 407.351C170.425 407.347 165.612 408.518 161.349 410.701C158.982 411.914 155.977 413.693 155.044 416.356C154.202 418.765 158.024 419.803 158.861 417.411C158.753 417.723 159.078 417.131 159.195 417.011C159.515 416.673 159.857 416.352 160.224 416.06C161.307 415.194 162.558 414.498 163.799 413.893C167.321 412.177 171.3 411.31 175.214 411.31C179.127 411.31 182.927 412.143 186.394 413.785C187.686 414.398 188.982 415.106 190.112 415.99C190.507 416.302 190.883 416.648 191.233 417.015C191.366 417.156 191.674 417.723 191.566 417.415C192.399 419.803 196.229 418.778 195.383 416.361V416.356Z" fill="black"/>
<path d="M47.8105 323.272C45.3834 319.972 44.431 316.098 45.0625 312.074C45.9051 306.687 49.4857 301.36 54.8916 297.453C66.3172 289.197 73.0443 291.649 76.6743 295.154C79.9448 298.319 81.3426 302.778 80.6093 307.704C79.5309 314.953 74.0459 322.253 66.9593 325.88C60.8985 328.982 52.1303 329.126 47.8239 323.284L47.8139 323.27L47.8105 323.272ZM74.9716 299.251C74.6632 298.831 74.3086 298.42 73.9001 298.028C70.2161 294.463 64.6026 295.361 57.2262 300.691C52.745 303.929 49.6711 308.414 49.0035 312.693C48.5354 315.685 49.2153 318.451 51.0257 320.913C53.9262 324.851 60.4786 324.727 65.1423 322.339C71.0402 319.321 75.7773 313.065 76.662 307.126C76.9902 304.915 76.9113 301.889 74.9716 299.251Z" fill="black"/>
<path d="M73.6785 297.769C73.0717 296.944 73.186 295.781 73.9699 295.09C82.5798 287.518 102.747 269.786 82.5025 239.926C81.8848 239.015 82.1248 237.775 83.0357 237.157C83.9466 236.54 85.1929 236.775 85.8038 237.691C108.021 270.462 85.1977 290.533 76.6056 298.086C75.7802 298.813 74.5165 298.731 73.7897 297.906C73.7515 297.861 73.7133 297.816 73.6785 297.769Z" fill="black"/>
<path d="M-3.22129 257.617C-21.4848 272.417 -46.2854 279.405 -53.8487 289.86C-62.3049 299.553 -57.0263 315.284 -42.7397 335.165C-28.0201 354.729 -14.578 364.456 -2.80444 359.274C9.42909 355.17 23.4917 333.58 43.0633 320.558C61.3268 305.757 86.1274 298.769 93.6907 288.315C102.147 278.621 96.8682 262.891 82.5816 243.009C67.8596 223.442 54.42 213.718 42.6464 218.901C30.4154 223.008 16.3503 244.595 -3.22129 257.617Z" fill="#725AFF"/>
<path d="M-4.39746 252.276C-8.70282 246.407 -5.95023 238.083 -1.18509 233.219C4.38619 227.538 12.9955 224.48 20.2338 225.607C25.1607 226.377 28.9976 229.037 31.0405 233.104C33.3101 237.615 33.6432 244.764 22.3535 253.212C17.0156 257.205 10.8601 259.037 5.46668 258.236C1.43567 257.636 -1.9762 255.575 -4.40333 252.275L-4.39746 252.276ZM1.6616 236.013C-2.00736 239.753 -4.07855 245.971 -1.19225 249.903C0.625605 252.375 3.0641 253.849 6.05886 254.294C10.3422 254.932 15.5434 253.332 19.9664 250.022C27.2533 244.57 29.7831 239.479 27.4789 234.9C25.6222 231.206 22.1775 229.951 19.6172 229.552C13.6843 228.626 6.30122 231.283 1.6616 236.013Z" fill="black"/>
<path d="M27.6574 235.186C27.6226 235.138 27.5878 235.091 27.5597 235.039C26.9885 234.099 27.2838 232.871 28.2237 232.299C28.6079 232.064 37.7957 226.511 49.4398 224.284C65.2313 221.264 77.8089 225.89 85.8003 237.693C86.418 238.604 86.1779 239.843 85.267 240.461C84.3561 241.079 83.109 240.85 82.499 239.928C75.3851 229.439 64.5458 225.483 50.2871 228.179C39.3329 230.252 30.3859 235.644 30.2963 235.699C29.4063 236.239 28.2592 236.004 27.6524 235.179L27.6574 235.186Z" fill="black"/>
<path d="M18.8654 278.648C21.0037 278.975 23.0014 277.505 23.3275 275.367C23.6535 273.229 22.1845 271.231 20.0463 270.905C17.908 270.579 15.9102 272.048 15.5841 274.186C15.2581 276.325 16.7272 278.322 18.8654 278.648Z" fill="black"/>
<path d="M35.3089 297.454C37.2342 296.468 37.996 294.108 37.0104 292.183C36.0248 290.258 33.6649 289.496 31.7395 290.481C29.8142 291.467 29.0524 293.827 30.0381 295.752C31.0237 297.678 33.3835 298.439 35.3089 297.454Z" fill="black"/>
<path d="M11.984 294.924C1.93475 281.258 5.46249 269.801 5.61983 269.321C5.95717 268.27 7.08337 267.697 8.12798 268.034C9.17846 268.371 9.75135 269.497 9.4149 270.542C9.29108 270.94 6.42157 280.621 15.2 292.559C23.9785 304.496 34.3869 304.642 34.4919 304.643C35.5927 304.631 36.4936 305.516 36.5025 306.62C36.5148 307.72 35.6298 308.621 34.5265 308.63C34.021 308.637 22.0307 308.586 11.984 294.924Z" fill="black"/>
<path d="M59.001 270.822C61.4495 275.42 64.5073 280.039 68.9072 283.004C72.3302 285.306 75.8175 285.79 79.872 284.877C85.2348 283.674 91.0532 281.433 94.0597 276.544C95.8954 273.563 96.4365 269.956 95.0815 266.653C92.1599 259.527 81.8496 258.402 77.6916 264.857C72.6994 272.608 79.7183 283.896 86.3153 288.304C92.9004 292.71 101.548 292.53 108.296 288.563C110.509 287.264 108.127 284.061 105.934 285.351C102.026 287.646 96.5314 288.373 92.1107 286.804C88.895 285.662 86.2557 283.497 84.2168 280.781C82.0088 277.835 79.7982 273.922 80.0441 270.104C80.4008 264.595 86.3781 262.789 90.1279 266.315C91.7116 267.803 92.2129 270.284 91.6485 272.351C90.4039 276.929 85.6977 278.926 81.6257 280.269C78.0817 281.436 74.6988 282.002 71.5318 279.969C67.6454 277.476 64.8571 273.394 62.7263 269.391C61.5334 267.152 57.7975 268.555 58.9994 270.813L59.001 270.822Z" fill="black"/>
<path d="M165.172 230.013L147.089 233.938C142.53 234.928 138.55 237.688 136.025 241.614L126.015 257.177C123.49 261.102 122.628 265.866 123.618 270.427L127.543 288.51C128.533 293.069 131.293 297.049 135.218 299.575L150.779 309.587C154.705 312.112 159.469 312.975 164.03 311.985L182.113 308.059C186.672 307.07 190.652 304.309 193.177 300.384L203.187 284.821C205.712 280.896 206.574 276.132 205.584 271.57L201.659 253.487C200.67 248.929 197.909 244.948 193.984 242.423L178.423 232.411C174.497 229.885 169.733 229.023 165.172 230.013Z" fill="#01CCD2"/>
<path d="M178.963 255.39L168.172 257.732C167.55 257.868 166.933 257.471 166.798 256.848C166.663 256.226 167.059 255.61 167.682 255.474L178.473 253.132C179.096 252.997 179.712 253.393 179.847 254.016C179.982 254.639 179.586 255.255 178.963 255.39Z" fill="black"/>
<path d="M155.851 260.407L145.06 262.75C144.437 262.885 143.821 262.488 143.686 261.866C143.551 261.243 143.947 260.627 144.57 260.492L155.361 258.149C155.983 258.014 156.599 258.41 156.735 259.033C156.87 259.656 156.473 260.272 155.851 260.407Z" fill="black"/>
<path d="M165.683 268.806L160.016 270.036C159.648 270.116 159.265 270.012 158.988 269.756C158.711 269.5 158.575 269.127 158.626 268.755L159.7 260.689C159.784 260.056 160.365 259.614 160.998 259.696C161.631 259.78 162.075 260.36 161.991 260.993L161.133 267.426L165.19 266.546C165.813 266.411 166.429 266.807 166.564 267.43C166.699 268.052 166.303 268.669 165.68 268.804L165.683 268.806Z" fill="black"/>
<path d="M160.614 282.35C160.45 282.386 160.273 282.387 160.099 282.342C159.482 282.193 159.098 281.572 159.248 280.954C159.275 280.839 159.951 278.094 162.411 275.208C164.656 272.573 168.885 269.295 176.291 268.636C176.926 268.58 177.488 269.048 177.544 269.685C177.6 270.32 177.131 270.88 176.495 270.939C163.956 272.053 161.589 281.11 161.493 281.495C161.386 281.939 161.032 282.259 160.614 282.35Z" fill="black"/>
<path d="M162.186 244.328C159.985 244.805 157.664 245.14 155.223 245.294C143.906 246.003 134.794 242.469 129.143 239.38C128.584 239.073 128.377 238.371 128.684 237.812C128.99 237.253 129.692 237.045 130.251 237.352C135.636 240.295 144.314 243.66 155.079 242.988C172.242 241.913 183.276 231.32 187.22 226.813C187.641 226.333 188.37 226.285 188.85 226.706C189.329 227.127 189.378 227.855 188.957 228.335C185.381 232.419 176.245 241.276 162.184 244.328L162.186 244.328Z" fill="black"/>
<path d="M74.5091 375.943C95.1411 355.013 81.5342 341.409 60.6066 362.041C60.3973 332.653 41.1549 332.653 40.9434 362.041C20.0134 341.409 6.4089 355.016 27.0409 375.943C-2.34697 376.153 -2.34697 395.395 27.0409 395.607C6.4089 416.537 20.0157 430.141 40.9434 409.509C41.1526 438.897 60.395 438.897 60.6066 409.509C81.5365 430.141 95.1411 416.534 74.5091 395.607C103.897 395.397 103.897 376.155 74.5091 375.943Z" fill="#725AFF"/>
<path d="M43.8155 383.24C44.0033 382.083 43.2178 380.993 42.061 380.805C40.9043 380.617 39.8144 381.403 39.6266 382.56C39.4388 383.716 40.2243 384.806 41.3811 384.994C42.5378 385.182 43.6278 384.396 43.8155 383.24Z" fill="black"/>
<path d="M45.0416 357.856C44.2934 362.136 40.9275 365.755 36.5496 366.385C34.2639 366.714 31.8487 366.234 29.8565 365.077C28.9672 364.561 27.9279 363.867 27.3957 362.957C26.7521 361.859 27.3025 360.588 28.0393 359.685C29.4949 357.902 32.0306 357.022 34.1116 358.245C35.8696 359.278 36.9362 361.365 36.8725 363.385C36.7133 368.34 31.5872 371.095 27.307 371.843C24.5961 372.316 21.7055 372.341 18.9741 372.034C16.3042 371.736 13.6319 370.917 11.601 369.093C10.5685 368.165 9.03568 369.689 10.0727 370.622C14.6349 374.72 21.7601 374.893 27.514 373.987C32.979 373.125 39.2696 369.218 39.0354 362.941C38.9376 360.319 37.4798 357.722 35.2055 356.38C32.672 354.886 29.5654 355.452 27.3775 357.299C25.217 359.123 24.0298 362.234 25.9675 364.647C27.7459 366.862 30.6934 368.156 33.4543 368.522C39.8996 369.378 46.0082 364.836 47.1248 358.434C47.3614 357.074 45.2804 356.489 45.0416 357.858V357.856Z" fill="black"/>
<path d="M58.4345 356.562C58.289 361.911 62.2485 367.137 67.6226 368.002C70.2425 368.422 72.9534 367.913 75.2572 366.592C77.5497 365.277 79.7807 362.928 80.1309 360.21C80.4835 357.492 78.3206 355.416 75.7053 355.223C72.817 355.009 70.3335 357.206 68.8643 359.482C67.2951 361.909 66.9334 364.956 68.6664 367.401C70.4403 369.901 73.3491 370.933 76.2965 371.217C83.6242 371.925 91.3362 369.632 97.4539 365.661C98.616 364.906 97.5335 363.037 96.3645 363.797C92.0798 366.576 87.1902 368.395 82.1027 368.957C79.5897 369.234 76.8742 369.371 74.4066 368.723C72.3075 368.172 70.1242 366.753 69.7012 364.463C69.2759 362.166 70.9725 359.714 72.7214 358.386C74.1451 357.304 77.0129 356.685 77.884 358.839C78.7072 360.876 76.3284 363.308 74.8069 364.331C73.083 365.489 71.0339 366.091 68.9552 365.989C64.1429 365.755 60.47 361.252 60.5974 356.562C60.636 355.17 58.4755 355.173 58.4368 356.562H58.4345Z" fill="black"/>
<path d="M57.3635 386.093C54.6708 386.093 52.6899 384.224 52.1441 383.649C51.7347 383.216 51.7529 382.532 52.185 382.12C52.6171 381.711 53.3017 381.729 53.711 382.161C54.1068 382.577 55.5305 383.931 57.3612 383.931C57.3749 383.931 57.3863 383.931 57.3999 383.931C58.5643 383.919 59.6855 383.328 60.734 382.177C61.1342 381.736 61.8188 381.702 62.26 382.104C62.7012 382.505 62.733 383.189 62.3328 383.63C60.8659 385.245 59.2125 386.073 57.4226 386.091C57.4022 386.091 57.3817 386.091 57.3635 386.091V386.093Z" fill="black"/>
<path d="M48.842 393.824H45.0986C44.6574 393.824 44.2594 393.555 44.0956 393.146C43.9319 392.736 44.0319 392.268 44.3526 391.963C46.8065 389.616 46.3744 386.632 46.3562 386.505C46.2653 385.918 46.6655 385.363 47.2523 385.27C47.839 385.175 48.3917 385.57 48.4895 386.157C48.5122 386.296 48.9307 388.975 47.3342 391.665H48.8443C49.4401 391.665 49.9245 392.15 49.9245 392.746C49.9245 393.341 49.4401 393.826 48.8443 393.826L48.842 393.824Z" fill="black"/>
<path d="M38.6464 400.473C40.9001 402.238 43.6247 403.523 46.5539 403.359C49.2921 403.207 51.903 402.04 53.9544 400.246C55.0028 399.329 53.4699 397.806 52.4261 398.718C50.8227 400.119 48.6917 401.081 46.5517 401.199C44.2205 401.329 41.9827 400.362 40.1724 398.945C39.0899 398.097 37.5502 399.616 38.6441 400.473H38.6464Z" fill="black"/>
<path d="M55.0369 402.607C54.7981 402.607 54.557 402.527 54.3569 402.366C51.7256 400.233 50.7886 397.058 50.75 396.924C50.5862 396.35 50.916 395.752 51.4891 395.586C52.0622 395.42 52.6603 395.752 52.8241 396.323C52.8354 396.362 53.6291 398.995 55.7146 400.687C56.1786 401.063 56.2491 401.743 55.8738 402.207C55.66 402.47 55.3485 402.607 55.0346 402.607H55.0369Z" fill="black"/>
<path d="M384.464 468.667L281.036 490.523C261.273 494.699 241.866 482.064 237.69 462.301C233.514 442.538 246.149 423.132 265.912 418.955L369.341 397.1C389.103 392.923 408.51 405.559 412.686 425.322C416.862 445.085 404.227 464.491 384.464 468.667Z" fill="#FF4800"/>
<path d="M352.107 426.12C353.802 425.762 354.885 424.098 354.527 422.404C354.169 420.71 352.505 419.626 350.81 419.984C349.116 420.342 348.033 422.006 348.391 423.701C348.749 425.395 350.413 426.478 352.107 426.12Z" fill="black"/>
<path d="M295.833 434.807C296.191 436.5 295.107 438.165 293.414 438.523C291.72 438.881 290.055 437.797 289.697 436.103C289.339 434.41 290.423 432.745 292.117 432.387C293.81 432.029 295.475 433.113 295.833 434.807Z" fill="black"/>
<path d="M337.561 475.143C336.016 473.439 333.636 472.579 331.225 473.088C328.815 473.597 326.983 475.348 326.262 477.531L312.73 474.581L316.469 492.276L327.651 484.104C329.197 485.808 331.577 486.668 333.987 486.159C336.398 485.65 338.23 483.899 338.95 481.716L352.483 484.666L348.744 466.971L337.561 475.143Z" fill="black"/>
<path d="M332.882 448.857L320.193 451.538C319.65 451.653 319.088 451.479 318.708 451.079C318.328 450.678 318.18 450.108 318.318 449.574L321.983 435.543C322.134 434.958 322.606 434.508 323.198 434.383C323.789 434.258 324.4 434.48 324.778 434.953L333.806 446.301C334.151 446.733 334.247 447.314 334.058 447.835C333.869 448.356 333.428 448.741 332.886 448.856L332.882 448.857ZM322.058 447.88L329.693 446.267L324.262 439.438L322.058 447.88Z" fill="black"/>
<path d="M329.36 463.561C323.464 464.807 317.516 464.168 313.043 461.808C312.262 461.396 311.966 460.432 312.378 459.651C312.79 458.87 313.754 458.573 314.535 458.985C318.359 461.005 323.524 461.531 328.703 460.437C333.882 459.342 338.388 456.769 341.072 453.378C341.62 452.685 342.622 452.569 343.315 453.114C344.007 453.661 344.123 454.664 343.579 455.356C340.443 459.323 335.262 462.314 329.366 463.56L329.36 463.561Z" fill="black"/>
<path d="M310.324 425.562C309.205 425.798 307.99 425.914 306.778 425.545C303.827 424.647 302.522 421.398 302.793 418.798C303.061 416.213 304.57 414.019 305.854 412.394C306.007 412.204 306.159 412.014 306.312 411.827C305.761 411.706 305.214 411.54 304.679 411.317C302.006 410.195 300.27 407.652 300.455 405.133C300.547 403.89 301.061 402.813 301.606 401.832C308.442 389.491 324.396 382.946 337.931 386.932C338.778 387.183 339.26 388.07 339.013 388.916C338.763 389.762 337.875 390.245 337.03 389.998C324.872 386.418 310.539 392.298 304.4 403.382C303.977 404.145 303.685 404.777 303.642 405.37C303.547 406.661 304.743 407.882 305.919 408.375C306.854 408.768 307.905 408.897 308.956 408.912C315.187 402.669 323.426 398.451 332.164 397.144C332.963 397.023 334.979 396.858 336.404 397.914C337.092 398.421 337.52 399.131 337.645 399.964C337.853 401.373 337.025 402.523 336.751 402.904C334.6 405.894 331.164 407.4 328.083 408.477C322.684 410.366 317.057 411.552 311.354 412.005C311.02 412.031 310.684 412.054 310.345 412.074C309.653 412.814 308.991 413.583 308.362 414.379C307.284 415.744 306.155 417.377 305.973 419.133C305.836 420.453 306.462 422.111 307.713 422.492C308.492 422.73 309.518 422.499 310.501 422.24C317.631 420.362 324.379 417.377 330.562 413.36C331.302 412.881 332.291 413.091 332.77 413.828C333.249 414.568 333.039 415.557 332.302 416.036C325.835 420.236 318.773 423.364 311.315 425.328C310.996 425.412 310.667 425.496 310.328 425.567L310.324 425.562ZM314.165 408.498C318.543 407.934 322.855 406.916 327.026 405.457C329.637 404.545 332.525 403.306 334.155 401.038C334.391 400.71 334.456 400.531 334.472 400.459C334.257 400.319 333.541 400.165 332.632 400.302C325.879 401.313 319.452 404.207 314.163 408.502L314.165 408.498Z" fill="black"/>
<path d="M91.8484 495.37C95.0673 514.362 100.009 529.736 99.8389 539.573C99.709 549.665 94.4698 554.219 78.2952 557.459C62.6347 560.078 39.0525 560.829 18.3207 554.576C-2.37054 548.579 -20.2147 535.579 -23.4368 516.588C-27.1872 497.694 -15.1439 479.193 2.05959 466.221C19.2099 452.997 41.5139 445.302 57.0775 442.174C73.3459 439.443 79.8631 441.834 83.5778 451.218C87.2391 460.35 88.0947 476.476 91.8484 495.37Z" fill="#01CCD2"/>
<path d="M75.2107 487.495C76.8507 487.193 77.9354 485.619 77.6336 483.979C77.3318 482.339 75.7577 481.254 74.1178 481.556C72.4778 481.858 71.3931 483.432 71.6949 485.072C71.9967 486.712 73.5708 487.797 75.2107 487.495Z" fill="black"/>
<path d="M45.4983 492.963C47.1383 492.661 48.223 491.087 47.9212 489.447C47.6194 487.807 46.0453 486.722 44.4054 487.024C42.7654 487.326 41.6807 488.9 41.9825 490.54C42.2843 492.18 43.8584 493.265 45.4983 492.963Z" fill="black"/>
<path d="M-7.06449 492.967C-11.1286 493.715 -14.5259 493.652 -17.6025 492.794C-18.4209 492.566 -18.8965 491.716 -18.6682 490.901C-18.4404 490.082 -17.5902 489.606 -16.775 489.835C-13.6043 490.722 -9.93621 490.593 -5.23794 489.429C15.5697 484.277 31.9602 465.029 33.7374 443.666C33.8088 442.821 34.5516 442.191 35.3972 442.262C36.2428 442.333 36.8731 443.076 36.8017 443.922C34.9199 466.557 17.5526 486.952 -4.49749 492.415C-5.38183 492.634 -6.23586 492.821 -7.06332 492.973L-7.06449 492.967Z" fill="black"/>
<path d="M10.0747 486.153C9.92827 486.18 9.77459 486.186 9.62 486.168C3.00845 485.41 -8.67529 478.44 -12.904 473.592C-14.5057 471.754 -16.3064 469.569 -17.3596 466.903C-18.5551 463.876 -18.4941 460.738 -17.196 458.298C-15.8804 455.829 -13.4913 454.382 -10.9538 453.813C-11.0333 453.489 -11.098 453.155 -11.1499 452.819C-11.6912 449.306 -10.2779 444.864 -6.53445 443.178C-2.28413 441.261 3.33977 443.052 6.76337 445.528C10.5053 448.232 23.0368 457.896 27.2516 468.801C27.5587 469.593 27.1629 470.482 26.3705 470.789C25.5781 471.096 24.6893 470.7 24.3822 469.908C21.2772 461.868 12.3119 453.328 4.9612 448.018C2.21362 446.033 -2.30954 444.644 -5.27514 445.98C-7.59332 447.025 -8.46932 450.042 -8.11325 452.353C-8.05394 452.746 -7.96422 453.144 -7.84469 453.544C-7.27068 453.57 -6.71133 453.641 -6.171 453.752C-3.39665 454.327 -0.665085 455.868 1.95068 458.335C3.19257 459.504 3.53098 461.272 2.81249 462.838C2.11043 464.369 0.590157 465.245 -1.06378 465.072C-1.16453 465.061 -1.27223 465.048 -1.37792 465.028C-3.46237 464.661 -5.01895 463.194 -6.26508 461.804C-7.41517 460.526 -8.83512 458.8 -9.86825 456.726C-11.757 457.047 -13.5651 458.022 -14.48 459.736C-15.3434 461.356 -15.3496 463.611 -14.4986 465.768C-13.6244 467.979 -12.0199 469.921 -10.5853 471.566C-6.86119 475.836 4.1908 482.449 9.97173 483.109C10.8151 483.204 11.4196 483.968 11.3248 484.811C11.2475 485.5 10.7233 486.031 10.0773 486.15L10.0747 486.153ZM-6.22384 456.898C-5.62217 457.807 -4.87888 458.753 -3.9815 459.749C-3.03857 460.796 -2.00601 461.794 -0.846372 461.998C-0.815972 462.003 -0.785577 462.007 -0.755177 462.011C-0.288786 462.06 -0.0738334 461.744 0.0128775 461.554C0.073952 461.421 0.24429 460.952 -0.162335 460.566C-2.16875 458.675 -4.20499 457.444 -6.22443 456.894L-6.22384 456.898Z" fill="black"/>
<path d="M72.9595 503.581L65.0127 505.044C64.1789 505.197 63.3762 504.644 63.2227 503.81C63.0693 502.976 63.6224 502.174 64.4562 502.02L69.8284 501.031C66.7317 497.811 62.2593 495.268 62.2077 495.238C61.4696 494.821 61.208 493.882 61.6249 493.144C62.0413 492.403 62.9771 492.142 63.7183 492.558C64.0047 492.719 70.729 496.539 73.9483 501.194C74.2445 501.624 74.3027 502.172 74.1055 502.656C73.9045 503.137 73.4751 503.486 72.9627 503.58L72.9595 503.581Z" fill="black"/>
<path d="M51.5716 518.793C54.5067 521.958 58.5752 524.559 62.7886 525.534C69.5287 527.097 77.2113 524.038 82.5329 519.985C84.1089 518.787 82.0978 516.459 80.5281 517.656C75.9105 521.171 68.8645 524.06 63.0254 522.44C59.627 521.496 56.3052 519.377 53.9034 516.785C52.561 515.338 50.2238 517.334 51.5742 518.79L51.5716 518.793Z" fill="black"/>
<path d="M260.516 581.732L260.473 581.796C257.817 585.792 256.31 590.44 256.107 595.235V595.299C255.661 605.876 248.914 615.152 238.993 618.838L238.953 618.854C234.44 620.528 230.472 623.415 227.486 627.193C220.905 635.515 209.974 639.066 199.767 636.203C195.123 634.898 190.212 634.898 185.568 636.203C175.361 639.066 164.43 635.515 157.854 627.2C154.864 623.419 150.895 620.532 146.382 618.858L146.342 618.842C136.418 615.156 129.674 605.88 129.229 595.303V595.239C129.026 590.444 127.515 585.796 124.859 581.8L124.815 581.736C118.962 572.925 118.962 561.465 124.815 552.654L124.859 552.59C127.515 548.594 129.022 543.946 129.225 539.15V539.087C129.67 528.51 136.418 519.233 146.338 515.547L146.378 515.532C150.891 513.858 154.86 510.971 157.846 507.193C164.426 498.871 175.357 495.32 185.564 498.183C190.208 499.487 195.119 499.487 199.763 498.183C209.97 495.32 220.901 498.871 227.478 507.185C230.468 510.967 234.436 513.854 238.949 515.528L238.989 515.543C248.914 519.229 255.657 528.506 256.103 539.083V539.146C256.306 543.942 257.817 548.59 260.473 552.586L260.516 552.65C266.369 561.461 266.369 572.921 260.516 581.732Z" fill="#FF4800"/>
<path d="M232.973 528.502C242.413 527.246 252.683 520.681 254.882 510.875C256.226 504.883 255.371 498.044 253.296 492.29C252.476 490.02 248.826 490.998 249.653 493.296C251.351 498.008 252.214 503.476 251.506 508.446C250.258 517.225 241.375 523.611 232.973 524.729C230.599 525.047 230.567 528.828 232.973 528.506V528.502Z" fill="black"/>
<path d="M234.408 540.725C240.659 541.254 247.466 540.141 253.133 537.485C263.518 532.618 267.944 520.375 268.214 509.539C268.29 506.438 268.115 503.177 267.363 500.152C266.779 497.794 263.133 498.792 263.721 501.158C265.423 508.013 264.457 516.009 261.777 522.446C259.785 527.234 256.85 531.301 252.206 533.735C248.743 535.552 244.782 536.467 240.906 536.832C238.758 537.035 236.56 537.131 234.408 536.948C231.987 536.741 231.999 540.522 234.408 540.725Z" fill="black"/>
<path d="M152.363 524.725C143.961 523.607 135.078 517.222 133.829 508.442C133.122 503.472 133.984 498 135.682 493.292C136.509 491.002 132.859 490.016 132.04 492.286C129.964 498.044 129.109 504.879 130.453 510.871C132.652 520.677 142.923 527.242 152.363 528.498C154.764 528.816 154.74 525.039 152.363 524.721V524.725Z" fill="black"/>
<path d="M150.927 536.948C145.539 537.405 139.646 536.61 134.676 534.478C124.946 530.307 121.026 519.027 120.886 509.09C120.851 506.458 120.974 503.722 121.61 501.154C122.195 498.796 118.552 497.786 117.968 500.148C116.039 507.909 117.101 516.844 120.191 524.12C122.397 529.317 125.646 533.878 130.636 536.677C134.545 538.868 138.947 539.974 143.368 540.491C145.853 540.781 148.422 540.932 150.923 540.717C153.329 540.514 153.349 536.733 150.923 536.94L150.927 536.948Z" fill="black"/>
<path d="M192.666 578.181C192.184 578.181 191.699 577.998 191.334 577.629C190.594 576.893 190.594 575.696 191.33 574.957C193.067 573.215 194.244 572.098 195.059 571.374C193.389 569.458 189.719 565.648 186.351 562.28C185.612 561.541 185.612 560.348 186.351 559.608C187.091 558.873 188.284 558.873 189.023 559.608C199.886 570.471 199.759 571.004 199.485 572.177C199.346 572.762 198.956 573.235 198.423 573.485C197.831 573.899 195.699 575.923 194.006 577.621C193.636 577.991 193.151 578.177 192.67 578.177L192.666 578.181Z" fill="black"/>
<path d="M192.654 604.445C189.584 604.445 186.403 603.737 183.401 602.357C180.268 600.918 178.2 598.361 177.588 595.16C177.393 594.134 178.061 593.144 179.087 592.949C180.113 592.754 181.103 593.422 181.298 594.448C181.687 596.476 182.924 597.979 184.98 598.926C188.558 600.572 192.403 601.073 195.807 600.341C199.461 599.554 202.61 597.299 204.233 594.301C204.73 593.383 205.875 593.041 206.793 593.538C207.712 594.035 208.054 595.18 207.557 596.098C205.417 600.051 201.322 603.017 196.602 604.031C195.322 604.305 193.998 604.441 192.654 604.441V604.445Z" fill="black"/>
<path d="M215.936 558.383C217.385 556.934 217.385 554.585 215.936 553.136C214.487 551.687 212.138 551.687 210.69 553.136C209.241 554.585 209.241 556.934 210.69 558.383C212.138 559.832 214.487 559.832 215.936 558.383Z" fill="black"/>
<path d="M175.675 556.341C176.004 554.319 174.631 552.413 172.609 552.084C170.586 551.755 168.68 553.128 168.351 555.15C168.022 557.172 169.395 559.078 171.417 559.407C173.44 559.736 175.346 558.364 175.675 556.341Z" fill="black"/>
<circle opacity="0.2" cx="187.5" cy="333.5" r="333.5" fill="#C2CDF9"/>
</g>
<defs>
<clipPath id="clip0_2010_1018">
<rect width="375" height="594" fill="white"/>
</clipPath>
</defs>
</svg>
