<svg width="172" height="170" viewBox="0 0 172 170" fill="none" xmlns="http://www.w3.org/2000/svg">
<path d="M144.165 74.4707C185.237 19.5089 140.679 -25.0447 85.7173 16.0226C30.7555 -25.0489 -13.7981 19.5089 27.2691 74.4707C-13.8023 129.433 30.7555 173.986 85.7173 132.919C140.679 173.99 185.233 129.433 144.165 74.4707Z" fill="#FFA300"/>
<path d="M98.2855 63.1901C97.8008 63.1901 97.3161 63.0157 96.9292 62.6628C96.1043 61.9145 96.0448 60.6348 96.7931 59.8099C99.5355 56.7912 102.626 55.2436 105.973 55.2096C106.011 55.2096 106.049 55.2096 106.083 55.2096C111.117 55.2096 114.82 58.7045 115.841 59.7802C116.606 60.588 116.572 61.8678 115.764 62.6373C114.956 63.4026 113.677 63.3686 112.907 62.5608C112.163 61.7742 109.476 59.219 106.011 59.253C103.834 59.2742 101.738 60.3797 99.7778 62.531C99.3782 62.969 98.8339 63.1901 98.2812 63.1901H98.2855Z" fill="black"/>
<path d="M57.065 63.1904C56.5803 63.1904 56.0956 63.0161 55.7087 62.6632C54.8839 61.9149 54.8244 60.6351 55.5727 59.8103C58.315 56.7916 61.406 55.244 64.7521 55.21C69.8499 55.1717 73.5914 58.6964 74.6203 59.7805C75.3856 60.5884 75.3516 61.8681 74.5438 62.6334C73.736 63.3988 72.4562 63.3647 71.6909 62.5569C70.9469 61.7704 68.2598 59.2151 64.7946 59.2491C62.6178 59.2703 60.5217 60.3758 58.5616 62.5272C58.162 62.9651 57.6177 63.1862 57.065 63.1862V63.1904Z" fill="black"/>
<path d="M85.2411 102.085C70.594 102.085 60.9639 87.957 60.5557 87.349C60.1391 86.7282 60.1008 85.9332 60.4537 85.2742C60.8066 84.6151 61.4911 84.207 62.2351 84.207H109.208C109.961 84.207 110.654 84.6279 110.998 85.2954C111.347 85.9629 111.291 86.7707 110.858 87.3872C110.445 87.974 100.62 101.737 85.7641 102.081C85.5897 102.081 85.4154 102.085 85.2411 102.085ZM66.4613 88.2461C69.9988 92.1407 76.9503 98.2631 85.6705 98.042C94.3313 97.8422 101.253 92.0259 104.846 88.2461H66.4571H66.4613Z" fill="black"/>
<path d="M165.743 65.7756C155.615 65.7756 145.046 62.4593 135.585 56.2475C126.648 50.3844 118.455 41.8555 111.223 30.8946C110.611 29.9635 110.866 28.7092 111.797 28.097C112.728 27.4847 113.983 27.7399 114.595 28.671C121.521 39.1684 129.331 47.3104 137.801 52.8717C147.716 59.3768 158.881 62.472 169.242 61.5877C170.352 61.4941 171.33 62.319 171.427 63.4287C171.521 64.5384 170.696 65.5163 169.586 65.614C168.315 65.7246 167.031 65.7756 165.743 65.7756Z" fill="black"/>
<path d="M163.345 53.2676C163.307 53.2676 163.273 53.2676 163.234 53.2676C154.31 52.7872 145.165 49.4411 136.789 43.5865C129.922 38.7863 123.485 32.3024 117.112 23.765C116.444 22.8722 116.627 21.6052 117.524 20.9377C118.417 20.2701 119.684 20.453 120.352 21.3501C126.461 29.5388 132.597 35.7293 139.106 40.2787C146.861 45.6996 155.284 48.7948 163.456 49.237C164.569 49.2965 165.424 50.2489 165.365 51.3629C165.305 52.4385 164.416 53.2761 163.349 53.2761L163.345 53.2676Z" fill="black"/>
<path d="M5.69176 65.7756C4.40349 65.7756 3.11947 65.7203 1.84821 65.614C0.738519 65.5205 -0.0863063 64.5426 0.00723122 63.4287C0.100769 62.319 1.07866 61.4941 2.19261 61.5877C12.554 62.472 23.719 59.3768 33.634 52.8717C42.1076 47.3104 49.9137 39.1684 56.8398 28.671C57.452 27.7399 58.7063 27.4847 59.6374 28.097C60.5685 28.7092 60.8236 29.9635 60.2114 30.8946C52.9792 41.8513 44.7819 50.3802 35.8491 56.2475C26.389 62.455 15.8151 65.7756 5.69176 65.7756Z" fill="black"/>
<path d="M8.09387 53.2672C7.02669 53.2672 6.13809 52.4339 6.07857 51.354C6.01904 50.24 6.87363 49.2876 7.98758 49.2281C16.1594 48.7902 24.582 45.6907 32.3371 40.2698C38.8465 35.7204 44.9774 29.53 51.0914 21.3412C51.7589 20.4483 53.0216 20.2655 53.9187 20.9288C54.8116 21.5963 54.9944 22.8633 54.3312 23.7562C47.9579 32.2978 41.5208 38.7817 34.6543 43.5776C26.2784 49.4322 17.133 52.7783 8.20867 53.2588C8.1704 53.2588 8.13639 53.2588 8.09813 53.2588L8.09387 53.2672Z" fill="black"/>
<path d="M50.8048 125.257L57.6081 169.264H27.8842L25.1658 94.3366V92.6891C25.1395 91.2846 25.7276 89.88 26.863 89.0519C28.1534 88.1068 29.4672 88.3497 30.8572 90.4302L30.8075 88.6803C30.7694 87.8112 31.0766 86.9568 31.6619 86.3452C32.5426 85.4001 33.5258 85.1338 34.5968 85.6576C35.542 86.1287 36.1155 87.1265 36.2296 88.1711L36.294 88.771C37.3152 87.5596 38.3862 86.9714 39.624 87.264C40.9144 87.583 41.7923 88.7827 41.9327 90.1112L42.0088 90.9013C42.8515 88.9876 44.0395 88.4638 45.5055 89.0754C46.8721 89.6635 47.6884 91.0417 47.7528 92.5223L48.7214 114.398C48.7214 114.398 60.1832 102.351 63.0654 105.286C65.4268 107.712 50.8019 125.26 50.8019 125.26L50.8048 125.257Z" fill="#FFCB0F"/>
<path d="M42.3833 109.233C41.8653 109.233 41.4381 108.818 41.4264 108.297L41.0548 90.9187C41.0431 90.389 41.4615 89.953 41.9912 89.9413C42.4799 89.9472 42.9568 90.3481 42.9685 90.8777L43.3401 108.256C43.3518 108.786 42.9334 109.222 42.4038 109.233H42.3833Z" fill="black"/>
<path d="M36.6129 109.233C36.0921 109.233 35.6649 108.815 35.6561 108.291L35.3371 88.7884C35.3284 88.2588 35.7497 87.8228 36.2794 87.814C36.85 87.7818 37.2421 88.2295 37.2509 88.7562L37.5698 108.259C37.5786 108.789 37.1572 109.225 36.6276 109.233H36.61H36.6129Z" fill="black"/>
<path d="M31.6998 109.374C31.1907 109.374 30.7693 108.973 30.7459 108.461L29.9061 90.4739C29.8798 89.9442 30.2894 89.4965 30.8161 89.4731C31.3545 89.438 31.7935 89.8565 31.8169 90.3832L32.6567 108.37C32.683 108.9 32.2734 109.348 31.7467 109.371C31.732 109.371 31.7174 109.371 31.6998 109.371V109.374Z" fill="black"/>
<path d="M153.367 92.6863L153.355 94.3337L150.637 169.261H120.924L127.728 125.254C127.728 125.254 113.103 107.706 115.464 105.28C118.335 102.346 129.796 114.393 129.796 114.393L130.78 92.5165C130.844 91.0359 131.66 89.6577 133.027 89.0696C134.481 88.458 135.681 88.9788 136.524 90.8955L136.6 90.1054C136.74 88.7769 137.621 87.5772 138.908 87.2582C140.135 86.9656 141.232 87.5509 142.227 88.7769L142.303 88.1653C142.405 87.1178 142.99 86.1229 143.936 85.6518C145.007 85.128 145.978 85.3972 146.871 86.3394C147.459 86.951 147.763 87.8084 147.725 88.6745L147.675 90.4244C149.065 88.3439 150.382 88.101 151.669 89.0461C152.805 89.8742 153.378 91.2788 153.367 92.6834V92.6863Z" fill="#FFCB0F"/>
<path d="M136.146 109.234H136.126C135.596 109.222 135.178 108.786 135.189 108.257L135.561 90.8781C135.573 90.3484 136.006 89.9446 136.538 89.9417C137.068 89.9534 137.486 90.3894 137.475 90.919L137.103 108.298C137.091 108.818 136.664 109.234 136.146 109.234Z" fill="black"/>
<path d="M141.917 109.234H141.902C141.372 109.225 140.951 108.789 140.96 108.259L141.279 88.7566C141.287 88.2358 141.715 87.8144 142.235 87.8144H142.253C142.783 87.8232 143.204 88.2592 143.195 88.7888L142.876 108.292C142.868 108.813 142.44 109.234 141.919 109.234H141.917Z" fill="black"/>
<path d="M146.827 109.374C146.812 109.374 146.797 109.374 146.78 109.374C146.253 109.348 145.843 108.903 145.87 108.374L146.71 90.3865C146.733 89.8598 147.16 89.4384 147.71 89.4764C148.237 89.5028 148.647 89.9475 148.62 90.4772L147.781 108.464C147.757 108.976 147.333 109.377 146.827 109.377V109.374Z" fill="black"/>
</svg>
