<svg width="101" height="101" viewBox="0 0 101 101" fill="none" xmlns="http://www.w3.org/2000/svg">
<rect width="101" height="101" rx="50.5" fill="#BFEAEC"/>
<path d="M57.5309 15.3853H41.1527C37.0237 15.3853 33.0626 17.0257 30.1414 19.947L18.5617 31.5288C15.6404 34.4501 14 38.409 14 42.5401V58.9183C14 63.0473 15.6404 67.0083 18.5617 69.9296L30.1414 81.5115C33.0626 84.4327 37.0215 86.0731 41.1527 86.0731H57.5309C61.6598 86.0731 65.6209 84.4327 68.5422 81.5115L80.1219 69.9296C83.0431 67.0083 84.6835 63.0494 84.6835 58.9183V42.5401C84.6835 38.4111 83.0431 34.4501 80.1219 31.5288L68.5422 19.947C65.6209 17.0257 61.662 15.3853 57.5309 15.3853Z" fill="#01CCD2"/>
<path d="M64.6951 39.9248H54.9216C54.3576 39.9248 53.899 39.4662 53.899 38.9022C53.899 38.3382 54.3576 37.8797 54.9216 37.8797H64.6951C65.2592 37.8797 65.7177 38.3382 65.7177 38.9022C65.7177 39.4662 65.2592 39.9248 64.6951 39.9248Z" fill="black"/>
<path d="M43.7618 39.9247H33.9883C33.4242 39.9247 32.9657 39.4661 32.9657 38.9021C32.9657 38.3381 33.4242 37.8795 33.9883 37.8795H43.7618C44.3258 37.8795 44.7844 38.3381 44.7844 38.9021C44.7844 39.4661 44.3258 39.9247 43.7618 39.9247Z" fill="black"/>
<path d="M50.6894 49.035H45.5572C45.2235 49.035 44.9114 48.8736 44.7198 48.6002C44.5282 48.3268 44.4808 47.978 44.5949 47.6659L47.0383 40.8912C47.2299 40.3594 47.8155 40.086 48.3472 40.2755C48.879 40.4671 49.1545 41.0526 48.9629 41.5844L47.0125 46.9878H50.6872C51.2513 46.9878 51.7098 47.4463 51.7098 48.0103C51.7098 48.5744 51.2513 49.0329 50.6872 49.0329L50.6894 49.035Z" fill="black"/>
<path d="M43.7618 59.7988C43.6133 59.7988 43.4605 59.7665 43.3184 59.6955C42.8125 59.45 42.5972 58.8408 42.8426 58.3349C42.8878 58.2402 43.9879 55.9927 46.6573 53.9584C49.0942 52.1005 53.3674 50.0597 59.8967 50.8799C60.4565 50.951 60.8547 51.4612 60.7836 52.023C60.7126 52.5828 60.2024 52.9789 59.6406 52.91C48.5862 51.5193 44.8382 58.9097 44.6832 59.224C44.5067 59.5878 44.1407 59.7988 43.7618 59.7988Z" fill="black"/>
<path d="M52.2609 27.2061C50.2674 27.2061 48.1965 27.0597 46.0566 26.7346C36.1346 25.2234 28.9164 20.4551 24.6088 16.7222C24.1825 16.3519 24.1352 15.7061 24.5054 15.2798C24.8757 14.8536 25.5215 14.8062 25.9478 15.1765C30.0531 18.7329 36.9268 23.273 46.3645 24.7132C61.4122 27.0059 72.9445 19.9147 77.2027 16.7566C77.6569 16.4208 78.2963 16.5155 78.6321 16.9697C78.968 17.424 78.8733 18.0633 78.419 18.3992C74.5591 21.2602 64.9944 27.2061 52.2587 27.2061H52.2609Z" fill="black"/>
</svg>
